%TF.GenerationSoftware,KiCad,Pcbnew,8.0.2-1*%
%TF.CreationDate,2024-06-10T12:13:13-07:00*%
%TF.ProjectId,FuseBlock,46757365-426c-46f6-936b-2e6b69636164,rev?*%
%TF.SameCoordinates,Original*%
%TF.FileFunction,Soldermask,Bot*%
%TF.FilePolarity,Negative*%
%FSLAX46Y46*%
G04 Gerber Fmt 4.6, Leading zero omitted, Abs format (unit mm)*
G04 Created by KiCad (PCBNEW 8.0.2-1) date 2024-06-10 12:13:13*
%MOMM*%
%LPD*%
G01*
G04 APERTURE LIST*
%ADD10R,5.000000X5.000000*%
G04 APERTURE END LIST*
D10*
%TO.C,J24*%
X93500000Y-115000000D03*
X98500000Y-115000000D03*
%TD*%
%TO.C,F2*%
X94300000Y-93250000D03*
X97700000Y-93250000D03*
X94300000Y-106750000D03*
X97700000Y-106750000D03*
%TD*%
%TO.C,J31*%
X132500000Y-115000000D03*
X137500000Y-115000000D03*
%TD*%
%TO.C,J12*%
X145500000Y-85000000D03*
X150500000Y-85000000D03*
%TD*%
%TO.C,J43*%
X197500000Y-108500000D03*
X202500000Y-108500000D03*
%TD*%
%TO.C,J1*%
X80500000Y-85000000D03*
X85500000Y-85000000D03*
%TD*%
%TO.C,J26*%
X106500000Y-115000000D03*
X111500000Y-115000000D03*
%TD*%
%TO.C,J17*%
X184500000Y-91500000D03*
X189500000Y-91500000D03*
%TD*%
%TO.C,J30*%
X132500000Y-108500000D03*
X137500000Y-108500000D03*
%TD*%
%TO.C,J25*%
X106500000Y-108500000D03*
X111500000Y-108500000D03*
%TD*%
%TO.C,J4*%
X93500000Y-91500000D03*
X98500000Y-91500000D03*
%TD*%
%TO.C,F5*%
X133300000Y-93250000D03*
X136700000Y-93250000D03*
X133300000Y-106750000D03*
X136700000Y-106750000D03*
%TD*%
%TO.C,J7*%
X119500000Y-85000000D03*
X124500000Y-85000000D03*
%TD*%
%TO.C,J16*%
X184500000Y-85000000D03*
X189500000Y-85000000D03*
%TD*%
%TO.C,J27*%
X119500000Y-100000000D03*
X124500000Y-100000000D03*
%TD*%
%TO.C,F3*%
X107300000Y-93250000D03*
X110700000Y-93250000D03*
X107300000Y-106750000D03*
X110700000Y-106750000D03*
%TD*%
%TO.C,F4*%
X120300000Y-93250000D03*
X123700000Y-93250000D03*
X120300000Y-106750000D03*
X123700000Y-106750000D03*
%TD*%
%TO.C,J36*%
X158500000Y-115000000D03*
X163500000Y-115000000D03*
%TD*%
%TO.C,J42*%
X197500000Y-100000000D03*
X202500000Y-100000000D03*
%TD*%
%TO.C,J20*%
X80500000Y-108500000D03*
X85500000Y-108500000D03*
%TD*%
%TO.C,J19*%
X197500000Y-91500000D03*
X202500000Y-91500000D03*
%TD*%
%TO.C,F8*%
X172300000Y-93250000D03*
X175700000Y-93250000D03*
X172300000Y-106750000D03*
X175700000Y-106750000D03*
%TD*%
%TO.C,J8*%
X119500000Y-91500000D03*
X124500000Y-91500000D03*
%TD*%
%TO.C,J10*%
X132500000Y-91500000D03*
X137500000Y-91500000D03*
%TD*%
%TO.C,J23*%
X93500000Y-108500000D03*
X98500000Y-108500000D03*
%TD*%
%TO.C,F7*%
X159300000Y-93250000D03*
X162700000Y-93250000D03*
X159300000Y-106750000D03*
X162700000Y-106750000D03*
%TD*%
%TO.C,J11*%
X132500000Y-100000000D03*
X137500000Y-100000000D03*
%TD*%
%TO.C,J3*%
X93500000Y-85000000D03*
X98500000Y-85000000D03*
%TD*%
%TO.C,J2*%
X80500000Y-91500000D03*
X85500000Y-91500000D03*
%TD*%
%TO.C,J37*%
X171500000Y-100000000D03*
X176500000Y-100000000D03*
%TD*%
%TO.C,J6*%
X106500000Y-91500000D03*
X111500000Y-91500000D03*
%TD*%
%TO.C,F1*%
X81300000Y-93250000D03*
X84700000Y-93250000D03*
X81300000Y-106750000D03*
X84700000Y-106750000D03*
%TD*%
%TO.C,J21*%
X80500000Y-115000000D03*
X85500000Y-115000000D03*
%TD*%
%TO.C,J40*%
X184500000Y-108500000D03*
X189500000Y-108500000D03*
%TD*%
%TO.C,F9*%
X185300000Y-93250000D03*
X188700000Y-93250000D03*
X185300000Y-106750000D03*
X188700000Y-106750000D03*
%TD*%
%TO.C,J41*%
X184500000Y-115000000D03*
X189500000Y-115000000D03*
%TD*%
%TO.C,J13*%
X145500000Y-91500000D03*
X150500000Y-91500000D03*
%TD*%
%TO.C,J39*%
X171500000Y-115000000D03*
X176500000Y-115000000D03*
%TD*%
%TO.C,J15*%
X171500000Y-85000000D03*
X176500000Y-85000000D03*
%TD*%
%TO.C,J38*%
X171500000Y-108500000D03*
X176500000Y-108500000D03*
%TD*%
%TO.C,J34*%
X158500000Y-100000000D03*
X163500000Y-100000000D03*
%TD*%
%TO.C,J32*%
X145500000Y-108500000D03*
X150500000Y-108500000D03*
%TD*%
%TO.C,J5*%
X106500000Y-85000000D03*
X111500000Y-85000000D03*
%TD*%
%TO.C,J14*%
X158500000Y-85000000D03*
X163500000Y-85000000D03*
%TD*%
%TO.C,J29*%
X119500000Y-115000000D03*
X124500000Y-115000000D03*
%TD*%
%TO.C,J9*%
X132500000Y-85000000D03*
X137500000Y-85000000D03*
%TD*%
%TO.C,F10*%
X198300000Y-93250000D03*
X201700000Y-93250000D03*
X198300000Y-106750000D03*
X201700000Y-106750000D03*
%TD*%
%TO.C,J18*%
X197500000Y-85000000D03*
X202500000Y-85000000D03*
%TD*%
%TO.C,J35*%
X158500000Y-108500000D03*
X163500000Y-108500000D03*
%TD*%
%TO.C,J28*%
X119500000Y-108500000D03*
X124500000Y-108500000D03*
%TD*%
%TO.C,F6*%
X146300000Y-93250000D03*
X149700000Y-93250000D03*
X146300000Y-106750000D03*
X149700000Y-106750000D03*
%TD*%
%TO.C,J33*%
X145500000Y-115000000D03*
X150500000Y-115000000D03*
%TD*%
%TO.C,J22*%
X93500000Y-100000000D03*
X98500000Y-100000000D03*
%TD*%
%TO.C,J44*%
X197500000Y-115000000D03*
X202500000Y-115000000D03*
%TD*%
M02*
