M48
; DRILL file {KiCad 8.0.2-1} date 2024-06-10T12:13:18-0700
; FORMAT={-:-/ absolute / inch / decimal}
; #@! TF.CreationDate,2024-06-10T12:13:18-07:00
; #@! TF.GenerationSoftware,Kicad,Pcbnew,8.0.2-1
; #@! TF.FileFunction,Plated,1,2,PTH
FMAT,2
INCH
; #@! TA.AperFunction,Plated,PTH,ComponentDrill
T1C0.0512
; #@! TA.AperFunction,Plated,PTH,ComponentDrill
T2C0.0630
; #@! TA.AperFunction,Plated,PTH,ViaDrill
T3C0.0984
%
G90
G05
T1
X3.1693Y-3.3465
X3.1693Y-3.6024
X3.1693Y-4.2717
X3.1693Y-4.5276
X3.3661Y-3.3465
X3.3661Y-3.6024
X3.3661Y-4.2717
X3.3661Y-4.5276
X3.6811Y-3.3465
X3.6811Y-3.6024
X3.6811Y-3.937
X3.6811Y-4.2717
X3.6811Y-4.5276
X3.878Y-3.3465
X3.878Y-3.6024
X3.878Y-3.937
X3.878Y-4.2717
X3.878Y-4.5276
X4.1929Y-3.3465
X4.1929Y-3.6024
X4.1929Y-4.2717
X4.1929Y-4.5276
X4.3898Y-3.3465
X4.3898Y-3.6024
X4.3898Y-4.2717
X4.3898Y-4.5276
X4.7047Y-3.3465
X4.7047Y-3.6024
X4.7047Y-3.937
X4.7047Y-4.2717
X4.7047Y-4.5276
X4.9016Y-3.3465
X4.9016Y-3.6024
X4.9016Y-3.937
X4.9016Y-4.2717
X4.9016Y-4.5276
X5.2165Y-3.3465
X5.2165Y-3.6024
X5.2165Y-3.937
X5.2165Y-4.2717
X5.2165Y-4.5276
X5.4134Y-3.3465
X5.4134Y-3.6024
X5.4134Y-3.937
X5.4134Y-4.2717
X5.4134Y-4.5276
X5.7283Y-3.3465
X5.7283Y-3.6024
X5.7283Y-4.2717
X5.7283Y-4.5276
X5.9252Y-3.3465
X5.9252Y-3.6024
X5.9252Y-4.2717
X5.9252Y-4.5276
X6.2402Y-3.3465
X6.2402Y-3.937
X6.2402Y-4.2717
X6.2402Y-4.5276
X6.437Y-3.3465
X6.437Y-3.937
X6.437Y-4.2717
X6.437Y-4.5276
X6.752Y-3.3465
X6.752Y-3.937
X6.752Y-4.2717
X6.752Y-4.5276
X6.9488Y-3.3465
X6.9488Y-3.937
X6.9488Y-4.2717
X6.9488Y-4.5276
X7.2638Y-3.3465
X7.2638Y-3.6024
X7.2638Y-4.2717
X7.2638Y-4.5276
X7.4606Y-3.3465
X7.4606Y-3.6024
X7.4606Y-4.2717
X7.4606Y-4.5276
X7.7756Y-3.3465
X7.7756Y-3.6024
X7.7756Y-3.937
X7.7756Y-4.2717
X7.7756Y-4.5276
X7.9724Y-3.3465
X7.9724Y-3.6024
X7.9724Y-3.937
X7.9724Y-4.2717
X7.9724Y-4.5276
T2
X3.2008Y-3.6713
X3.2008Y-4.2028
X3.3346Y-3.6713
X3.3346Y-4.2028
X3.7126Y-3.6713
X3.7126Y-4.2028
X3.8465Y-3.6713
X3.8465Y-4.2028
X4.2244Y-3.6713
X4.2244Y-4.2028
X4.3583Y-3.6713
X4.3583Y-4.2028
X4.7362Y-3.6713
X4.7362Y-4.2028
X4.8701Y-3.6713
X4.8701Y-4.2028
X5.248Y-3.6713
X5.248Y-4.2028
X5.3819Y-3.6713
X5.3819Y-4.2028
X5.7598Y-3.6713
X5.7598Y-4.2028
X5.8937Y-3.6713
X5.8937Y-4.2028
X6.2717Y-3.6713
X6.2717Y-4.2028
X6.4055Y-3.6713
X6.4055Y-4.2028
X6.7835Y-3.6713
X6.7835Y-4.2028
X6.9173Y-3.6713
X6.9173Y-4.2028
X7.2953Y-3.6713
X7.2953Y-4.2028
X7.4291Y-3.6713
X7.4291Y-4.2028
X7.8071Y-3.6713
X7.8071Y-4.2028
X7.9409Y-3.6713
X7.9409Y-4.2028
T3
X3.0906Y-3.937
X3.4449Y-3.937
X4.1142Y-3.937
X4.4685Y-3.937
X5.6496Y-3.937
X6.0039Y-3.937
X7.185Y-3.937
X7.5394Y-3.937
M30
