%TF.GenerationSoftware,KiCad,Pcbnew,8.0.2-1*%
%TF.CreationDate,2024-06-10T12:13:13-07:00*%
%TF.ProjectId,FuseBlock,46757365-426c-46f6-936b-2e6b69636164,rev?*%
%TF.SameCoordinates,Original*%
%TF.FileFunction,Legend,Bot*%
%TF.FilePolarity,Positive*%
%FSLAX46Y46*%
G04 Gerber Fmt 4.6, Leading zero omitted, Abs format (unit mm)*
G04 Created by KiCad (PCBNEW 8.0.2-1) date 2024-06-10 12:13:13*
%MOMM*%
%LPD*%
G01*
G04 APERTURE LIST*
%ADD10C,0.300000*%
%ADD11C,0.250000*%
G04 APERTURE END LIST*
D10*
X129000000Y-102500000D02*
X129000000Y-96000000D01*
X129000000Y-104000000D02*
X141000000Y-104000000D01*
X141000000Y-117500000D01*
X129000000Y-117500000D01*
X129000000Y-104000000D01*
X142000000Y-104000000D02*
X154000000Y-104000000D01*
X154000000Y-117500000D01*
X142000000Y-117500000D01*
X142000000Y-104000000D01*
X90000000Y-82500000D02*
X102000000Y-82500000D01*
X102000000Y-96000000D01*
X90000000Y-96000000D01*
X90000000Y-82500000D01*
X77000000Y-82500000D02*
X89000000Y-82500000D01*
X89000000Y-96000000D01*
X77000000Y-96000000D01*
X77000000Y-82500000D01*
X103000000Y-104000000D02*
X115000000Y-104000000D01*
X115000000Y-117500000D01*
X103000000Y-117500000D01*
X103000000Y-104000000D01*
X116000000Y-97500000D02*
X128000000Y-97500000D01*
X128000000Y-117500000D01*
X116000000Y-117500000D01*
X116000000Y-97500000D01*
X168000000Y-97500000D02*
X180000000Y-97500000D01*
X180000000Y-117500000D01*
X168000000Y-117500000D01*
X168000000Y-97500000D01*
X141000000Y-82500000D02*
X141000000Y-102500000D01*
X90000000Y-97500000D02*
X102000000Y-97500000D01*
X102000000Y-117500000D01*
X90000000Y-117500000D01*
X90000000Y-97500000D01*
X116000000Y-82500000D02*
X141000000Y-82500000D01*
X142000000Y-83500000D02*
X167000000Y-83500000D01*
X167000000Y-96000000D01*
X142000000Y-96000000D01*
X142000000Y-83500000D01*
X168000000Y-82500000D02*
X193000000Y-82500000D01*
X193000000Y-96000000D01*
X168000000Y-96000000D01*
X168000000Y-82500000D01*
X141000000Y-102500000D02*
X129000000Y-102500000D01*
X181000000Y-104000000D02*
X193000000Y-104000000D01*
X193000000Y-117500000D01*
X181000000Y-117500000D01*
X181000000Y-104000000D01*
X129000000Y-96000000D02*
X116000000Y-96000000D01*
X194000000Y-82500000D02*
X206000000Y-82500000D01*
X206000000Y-96000000D01*
X194000000Y-96000000D01*
X194000000Y-82500000D01*
X103000000Y-82500000D02*
X115000000Y-82500000D01*
X115000000Y-96000000D01*
X103000000Y-96000000D01*
X103000000Y-82500000D01*
X155000000Y-97500000D02*
X167000000Y-97500000D01*
X167000000Y-117500000D01*
X155000000Y-117500000D01*
X155000000Y-97500000D01*
X194000000Y-97500000D02*
X206000000Y-97500000D01*
X206000000Y-117500000D01*
X194000000Y-117500000D01*
X194000000Y-97500000D01*
X77000000Y-104000000D02*
X89000000Y-104000000D01*
X89000000Y-117500000D01*
X77000000Y-117500000D01*
X77000000Y-104000000D01*
X116000000Y-96000000D02*
X116000000Y-82500000D01*
D11*
X96764098Y-96840809D02*
X97097431Y-96840809D01*
X97097431Y-97364619D02*
X97097431Y-96364619D01*
X97097431Y-96364619D02*
X96621241Y-96364619D01*
X96287907Y-96459857D02*
X96240288Y-96412238D01*
X96240288Y-96412238D02*
X96145050Y-96364619D01*
X96145050Y-96364619D02*
X95906955Y-96364619D01*
X95906955Y-96364619D02*
X95811717Y-96412238D01*
X95811717Y-96412238D02*
X95764098Y-96459857D01*
X95764098Y-96459857D02*
X95716479Y-96555095D01*
X95716479Y-96555095D02*
X95716479Y-96650333D01*
X95716479Y-96650333D02*
X95764098Y-96793190D01*
X95764098Y-96793190D02*
X96335526Y-97364619D01*
X96335526Y-97364619D02*
X95716479Y-97364619D01*
X200764098Y-96840809D02*
X201097431Y-96840809D01*
X201097431Y-97364619D02*
X201097431Y-96364619D01*
X201097431Y-96364619D02*
X200621241Y-96364619D01*
X199716479Y-97364619D02*
X200287907Y-97364619D01*
X200002193Y-97364619D02*
X200002193Y-96364619D01*
X200002193Y-96364619D02*
X200097431Y-96507476D01*
X200097431Y-96507476D02*
X200192669Y-96602714D01*
X200192669Y-96602714D02*
X200287907Y-96650333D01*
X199097431Y-96364619D02*
X199002193Y-96364619D01*
X199002193Y-96364619D02*
X198906955Y-96412238D01*
X198906955Y-96412238D02*
X198859336Y-96459857D01*
X198859336Y-96459857D02*
X198811717Y-96555095D01*
X198811717Y-96555095D02*
X198764098Y-96745571D01*
X198764098Y-96745571D02*
X198764098Y-96983666D01*
X198764098Y-96983666D02*
X198811717Y-97174142D01*
X198811717Y-97174142D02*
X198859336Y-97269380D01*
X198859336Y-97269380D02*
X198906955Y-97317000D01*
X198906955Y-97317000D02*
X199002193Y-97364619D01*
X199002193Y-97364619D02*
X199097431Y-97364619D01*
X199097431Y-97364619D02*
X199192669Y-97317000D01*
X199192669Y-97317000D02*
X199240288Y-97269380D01*
X199240288Y-97269380D02*
X199287907Y-97174142D01*
X199287907Y-97174142D02*
X199335526Y-96983666D01*
X199335526Y-96983666D02*
X199335526Y-96745571D01*
X199335526Y-96745571D02*
X199287907Y-96555095D01*
X199287907Y-96555095D02*
X199240288Y-96459857D01*
X199240288Y-96459857D02*
X199192669Y-96412238D01*
X199192669Y-96412238D02*
X199097431Y-96364619D01*
X109264098Y-96840809D02*
X109597431Y-96840809D01*
X109597431Y-97364619D02*
X109597431Y-96364619D01*
X109597431Y-96364619D02*
X109121241Y-96364619D01*
X108835526Y-96364619D02*
X108216479Y-96364619D01*
X108216479Y-96364619D02*
X108549812Y-96745571D01*
X108549812Y-96745571D02*
X108406955Y-96745571D01*
X108406955Y-96745571D02*
X108311717Y-96793190D01*
X108311717Y-96793190D02*
X108264098Y-96840809D01*
X108264098Y-96840809D02*
X108216479Y-96936047D01*
X108216479Y-96936047D02*
X108216479Y-97174142D01*
X108216479Y-97174142D02*
X108264098Y-97269380D01*
X108264098Y-97269380D02*
X108311717Y-97317000D01*
X108311717Y-97317000D02*
X108406955Y-97364619D01*
X108406955Y-97364619D02*
X108692669Y-97364619D01*
X108692669Y-97364619D02*
X108787907Y-97317000D01*
X108787907Y-97317000D02*
X108835526Y-97269380D01*
X122264098Y-96840809D02*
X122597431Y-96840809D01*
X122597431Y-97364619D02*
X122597431Y-96364619D01*
X122597431Y-96364619D02*
X122121241Y-96364619D01*
X121311717Y-96697952D02*
X121311717Y-97364619D01*
X121549812Y-96317000D02*
X121787907Y-97031285D01*
X121787907Y-97031285D02*
X121168860Y-97031285D01*
X174264098Y-96840809D02*
X174597431Y-96840809D01*
X174597431Y-97364619D02*
X174597431Y-96364619D01*
X174597431Y-96364619D02*
X174121241Y-96364619D01*
X173597431Y-96793190D02*
X173692669Y-96745571D01*
X173692669Y-96745571D02*
X173740288Y-96697952D01*
X173740288Y-96697952D02*
X173787907Y-96602714D01*
X173787907Y-96602714D02*
X173787907Y-96555095D01*
X173787907Y-96555095D02*
X173740288Y-96459857D01*
X173740288Y-96459857D02*
X173692669Y-96412238D01*
X173692669Y-96412238D02*
X173597431Y-96364619D01*
X173597431Y-96364619D02*
X173406955Y-96364619D01*
X173406955Y-96364619D02*
X173311717Y-96412238D01*
X173311717Y-96412238D02*
X173264098Y-96459857D01*
X173264098Y-96459857D02*
X173216479Y-96555095D01*
X173216479Y-96555095D02*
X173216479Y-96602714D01*
X173216479Y-96602714D02*
X173264098Y-96697952D01*
X173264098Y-96697952D02*
X173311717Y-96745571D01*
X173311717Y-96745571D02*
X173406955Y-96793190D01*
X173406955Y-96793190D02*
X173597431Y-96793190D01*
X173597431Y-96793190D02*
X173692669Y-96840809D01*
X173692669Y-96840809D02*
X173740288Y-96888428D01*
X173740288Y-96888428D02*
X173787907Y-96983666D01*
X173787907Y-96983666D02*
X173787907Y-97174142D01*
X173787907Y-97174142D02*
X173740288Y-97269380D01*
X173740288Y-97269380D02*
X173692669Y-97317000D01*
X173692669Y-97317000D02*
X173597431Y-97364619D01*
X173597431Y-97364619D02*
X173406955Y-97364619D01*
X173406955Y-97364619D02*
X173311717Y-97317000D01*
X173311717Y-97317000D02*
X173264098Y-97269380D01*
X173264098Y-97269380D02*
X173216479Y-97174142D01*
X173216479Y-97174142D02*
X173216479Y-96983666D01*
X173216479Y-96983666D02*
X173264098Y-96888428D01*
X173264098Y-96888428D02*
X173311717Y-96840809D01*
X173311717Y-96840809D02*
X173406955Y-96793190D01*
X135264098Y-96840809D02*
X135597431Y-96840809D01*
X135597431Y-97364619D02*
X135597431Y-96364619D01*
X135597431Y-96364619D02*
X135121241Y-96364619D01*
X134264098Y-96364619D02*
X134740288Y-96364619D01*
X134740288Y-96364619D02*
X134787907Y-96840809D01*
X134787907Y-96840809D02*
X134740288Y-96793190D01*
X134740288Y-96793190D02*
X134645050Y-96745571D01*
X134645050Y-96745571D02*
X134406955Y-96745571D01*
X134406955Y-96745571D02*
X134311717Y-96793190D01*
X134311717Y-96793190D02*
X134264098Y-96840809D01*
X134264098Y-96840809D02*
X134216479Y-96936047D01*
X134216479Y-96936047D02*
X134216479Y-97174142D01*
X134216479Y-97174142D02*
X134264098Y-97269380D01*
X134264098Y-97269380D02*
X134311717Y-97317000D01*
X134311717Y-97317000D02*
X134406955Y-97364619D01*
X134406955Y-97364619D02*
X134645050Y-97364619D01*
X134645050Y-97364619D02*
X134740288Y-97317000D01*
X134740288Y-97317000D02*
X134787907Y-97269380D01*
X83264098Y-96840809D02*
X83597431Y-96840809D01*
X83597431Y-97364619D02*
X83597431Y-96364619D01*
X83597431Y-96364619D02*
X83121241Y-96364619D01*
X82216479Y-97364619D02*
X82787907Y-97364619D01*
X82502193Y-97364619D02*
X82502193Y-96364619D01*
X82502193Y-96364619D02*
X82597431Y-96507476D01*
X82597431Y-96507476D02*
X82692669Y-96602714D01*
X82692669Y-96602714D02*
X82787907Y-96650333D01*
X148264098Y-96840809D02*
X148597431Y-96840809D01*
X148597431Y-97364619D02*
X148597431Y-96364619D01*
X148597431Y-96364619D02*
X148121241Y-96364619D01*
X147311717Y-96364619D02*
X147502193Y-96364619D01*
X147502193Y-96364619D02*
X147597431Y-96412238D01*
X147597431Y-96412238D02*
X147645050Y-96459857D01*
X147645050Y-96459857D02*
X147740288Y-96602714D01*
X147740288Y-96602714D02*
X147787907Y-96793190D01*
X147787907Y-96793190D02*
X147787907Y-97174142D01*
X147787907Y-97174142D02*
X147740288Y-97269380D01*
X147740288Y-97269380D02*
X147692669Y-97317000D01*
X147692669Y-97317000D02*
X147597431Y-97364619D01*
X147597431Y-97364619D02*
X147406955Y-97364619D01*
X147406955Y-97364619D02*
X147311717Y-97317000D01*
X147311717Y-97317000D02*
X147264098Y-97269380D01*
X147264098Y-97269380D02*
X147216479Y-97174142D01*
X147216479Y-97174142D02*
X147216479Y-96936047D01*
X147216479Y-96936047D02*
X147264098Y-96840809D01*
X147264098Y-96840809D02*
X147311717Y-96793190D01*
X147311717Y-96793190D02*
X147406955Y-96745571D01*
X147406955Y-96745571D02*
X147597431Y-96745571D01*
X147597431Y-96745571D02*
X147692669Y-96793190D01*
X147692669Y-96793190D02*
X147740288Y-96840809D01*
X147740288Y-96840809D02*
X147787907Y-96936047D01*
X161264098Y-96840809D02*
X161597431Y-96840809D01*
X161597431Y-97364619D02*
X161597431Y-96364619D01*
X161597431Y-96364619D02*
X161121241Y-96364619D01*
X160835526Y-96364619D02*
X160168860Y-96364619D01*
X160168860Y-96364619D02*
X160597431Y-97364619D01*
X187264098Y-96840809D02*
X187597431Y-96840809D01*
X187597431Y-97364619D02*
X187597431Y-96364619D01*
X187597431Y-96364619D02*
X187121241Y-96364619D01*
X186692669Y-97364619D02*
X186502193Y-97364619D01*
X186502193Y-97364619D02*
X186406955Y-97317000D01*
X186406955Y-97317000D02*
X186359336Y-97269380D01*
X186359336Y-97269380D02*
X186264098Y-97126523D01*
X186264098Y-97126523D02*
X186216479Y-96936047D01*
X186216479Y-96936047D02*
X186216479Y-96555095D01*
X186216479Y-96555095D02*
X186264098Y-96459857D01*
X186264098Y-96459857D02*
X186311717Y-96412238D01*
X186311717Y-96412238D02*
X186406955Y-96364619D01*
X186406955Y-96364619D02*
X186597431Y-96364619D01*
X186597431Y-96364619D02*
X186692669Y-96412238D01*
X186692669Y-96412238D02*
X186740288Y-96459857D01*
X186740288Y-96459857D02*
X186787907Y-96555095D01*
X186787907Y-96555095D02*
X186787907Y-96793190D01*
X186787907Y-96793190D02*
X186740288Y-96888428D01*
X186740288Y-96888428D02*
X186692669Y-96936047D01*
X186692669Y-96936047D02*
X186597431Y-96983666D01*
X186597431Y-96983666D02*
X186406955Y-96983666D01*
X186406955Y-96983666D02*
X186311717Y-96936047D01*
X186311717Y-96936047D02*
X186264098Y-96888428D01*
X186264098Y-96888428D02*
X186216479Y-96793190D01*
M02*
