%TF.GenerationSoftware,KiCad,Pcbnew,8.0.2-1*%
%TF.CreationDate,2024-06-10T12:13:12-07:00*%
%TF.ProjectId,FuseBlock,46757365-426c-46f6-936b-2e6b69636164,rev?*%
%TF.SameCoordinates,Original*%
%TF.FileFunction,Legend,Top*%
%TF.FilePolarity,Positive*%
%FSLAX46Y46*%
G04 Gerber Fmt 4.6, Leading zero omitted, Abs format (unit mm)*
G04 Created by KiCad (PCBNEW 8.0.2-1) date 2024-06-10 12:13:12*
%MOMM*%
%LPD*%
G01*
G04 APERTURE LIST*
%ADD10C,0.100000*%
G04 APERTURE END LIST*
D10*
X88690476Y-112457419D02*
X88690476Y-113171704D01*
X88690476Y-113171704D02*
X88642857Y-113314561D01*
X88642857Y-113314561D02*
X88547619Y-113409800D01*
X88547619Y-113409800D02*
X88404762Y-113457419D01*
X88404762Y-113457419D02*
X88309524Y-113457419D01*
X89119048Y-112552657D02*
X89166667Y-112505038D01*
X89166667Y-112505038D02*
X89261905Y-112457419D01*
X89261905Y-112457419D02*
X89500000Y-112457419D01*
X89500000Y-112457419D02*
X89595238Y-112505038D01*
X89595238Y-112505038D02*
X89642857Y-112552657D01*
X89642857Y-112552657D02*
X89690476Y-112647895D01*
X89690476Y-112647895D02*
X89690476Y-112743133D01*
X89690476Y-112743133D02*
X89642857Y-112885990D01*
X89642857Y-112885990D02*
X89071429Y-113457419D01*
X89071429Y-113457419D02*
X89690476Y-113457419D01*
X90547619Y-112790752D02*
X90547619Y-113457419D01*
X90309524Y-112409800D02*
X90071429Y-113124085D01*
X90071429Y-113124085D02*
X90690476Y-113124085D01*
X89666666Y-99433609D02*
X89333333Y-99433609D01*
X89333333Y-99957419D02*
X89333333Y-98957419D01*
X89333333Y-98957419D02*
X89809523Y-98957419D01*
X90142857Y-99052657D02*
X90190476Y-99005038D01*
X90190476Y-99005038D02*
X90285714Y-98957419D01*
X90285714Y-98957419D02*
X90523809Y-98957419D01*
X90523809Y-98957419D02*
X90619047Y-99005038D01*
X90619047Y-99005038D02*
X90666666Y-99052657D01*
X90666666Y-99052657D02*
X90714285Y-99147895D01*
X90714285Y-99147895D02*
X90714285Y-99243133D01*
X90714285Y-99243133D02*
X90666666Y-99385990D01*
X90666666Y-99385990D02*
X90095238Y-99957419D01*
X90095238Y-99957419D02*
X90714285Y-99957419D01*
X127690476Y-112457419D02*
X127690476Y-113171704D01*
X127690476Y-113171704D02*
X127642857Y-113314561D01*
X127642857Y-113314561D02*
X127547619Y-113409800D01*
X127547619Y-113409800D02*
X127404762Y-113457419D01*
X127404762Y-113457419D02*
X127309524Y-113457419D01*
X128071429Y-112457419D02*
X128690476Y-112457419D01*
X128690476Y-112457419D02*
X128357143Y-112838371D01*
X128357143Y-112838371D02*
X128500000Y-112838371D01*
X128500000Y-112838371D02*
X128595238Y-112885990D01*
X128595238Y-112885990D02*
X128642857Y-112933609D01*
X128642857Y-112933609D02*
X128690476Y-113028847D01*
X128690476Y-113028847D02*
X128690476Y-113266942D01*
X128690476Y-113266942D02*
X128642857Y-113362180D01*
X128642857Y-113362180D02*
X128595238Y-113409800D01*
X128595238Y-113409800D02*
X128500000Y-113457419D01*
X128500000Y-113457419D02*
X128214286Y-113457419D01*
X128214286Y-113457419D02*
X128119048Y-113409800D01*
X128119048Y-113409800D02*
X128071429Y-113362180D01*
X129642857Y-113457419D02*
X129071429Y-113457419D01*
X129357143Y-113457419D02*
X129357143Y-112457419D01*
X129357143Y-112457419D02*
X129261905Y-112600276D01*
X129261905Y-112600276D02*
X129166667Y-112695514D01*
X129166667Y-112695514D02*
X129071429Y-112743133D01*
X140690476Y-82457419D02*
X140690476Y-83171704D01*
X140690476Y-83171704D02*
X140642857Y-83314561D01*
X140642857Y-83314561D02*
X140547619Y-83409800D01*
X140547619Y-83409800D02*
X140404762Y-83457419D01*
X140404762Y-83457419D02*
X140309524Y-83457419D01*
X141690476Y-83457419D02*
X141119048Y-83457419D01*
X141404762Y-83457419D02*
X141404762Y-82457419D01*
X141404762Y-82457419D02*
X141309524Y-82600276D01*
X141309524Y-82600276D02*
X141214286Y-82695514D01*
X141214286Y-82695514D02*
X141119048Y-82743133D01*
X142071429Y-82552657D02*
X142119048Y-82505038D01*
X142119048Y-82505038D02*
X142214286Y-82457419D01*
X142214286Y-82457419D02*
X142452381Y-82457419D01*
X142452381Y-82457419D02*
X142547619Y-82505038D01*
X142547619Y-82505038D02*
X142595238Y-82552657D01*
X142595238Y-82552657D02*
X142642857Y-82647895D01*
X142642857Y-82647895D02*
X142642857Y-82743133D01*
X142642857Y-82743133D02*
X142595238Y-82885990D01*
X142595238Y-82885990D02*
X142023810Y-83457419D01*
X142023810Y-83457419D02*
X142642857Y-83457419D01*
X192690476Y-104957419D02*
X192690476Y-105671704D01*
X192690476Y-105671704D02*
X192642857Y-105814561D01*
X192642857Y-105814561D02*
X192547619Y-105909800D01*
X192547619Y-105909800D02*
X192404762Y-105957419D01*
X192404762Y-105957419D02*
X192309524Y-105957419D01*
X193595238Y-105290752D02*
X193595238Y-105957419D01*
X193357143Y-104909800D02*
X193119048Y-105624085D01*
X193119048Y-105624085D02*
X193738095Y-105624085D01*
X194023810Y-104957419D02*
X194642857Y-104957419D01*
X194642857Y-104957419D02*
X194309524Y-105338371D01*
X194309524Y-105338371D02*
X194452381Y-105338371D01*
X194452381Y-105338371D02*
X194547619Y-105385990D01*
X194547619Y-105385990D02*
X194595238Y-105433609D01*
X194595238Y-105433609D02*
X194642857Y-105528847D01*
X194642857Y-105528847D02*
X194642857Y-105766942D01*
X194642857Y-105766942D02*
X194595238Y-105862180D01*
X194595238Y-105862180D02*
X194547619Y-105909800D01*
X194547619Y-105909800D02*
X194452381Y-105957419D01*
X194452381Y-105957419D02*
X194166667Y-105957419D01*
X194166667Y-105957419D02*
X194071429Y-105909800D01*
X194071429Y-105909800D02*
X194023810Y-105862180D01*
X76166666Y-82457419D02*
X76166666Y-83171704D01*
X76166666Y-83171704D02*
X76119047Y-83314561D01*
X76119047Y-83314561D02*
X76023809Y-83409800D01*
X76023809Y-83409800D02*
X75880952Y-83457419D01*
X75880952Y-83457419D02*
X75785714Y-83457419D01*
X77166666Y-83457419D02*
X76595238Y-83457419D01*
X76880952Y-83457419D02*
X76880952Y-82457419D01*
X76880952Y-82457419D02*
X76785714Y-82600276D01*
X76785714Y-82600276D02*
X76690476Y-82695514D01*
X76690476Y-82695514D02*
X76595238Y-82743133D01*
X101690476Y-112457419D02*
X101690476Y-113171704D01*
X101690476Y-113171704D02*
X101642857Y-113314561D01*
X101642857Y-113314561D02*
X101547619Y-113409800D01*
X101547619Y-113409800D02*
X101404762Y-113457419D01*
X101404762Y-113457419D02*
X101309524Y-113457419D01*
X102119048Y-112552657D02*
X102166667Y-112505038D01*
X102166667Y-112505038D02*
X102261905Y-112457419D01*
X102261905Y-112457419D02*
X102500000Y-112457419D01*
X102500000Y-112457419D02*
X102595238Y-112505038D01*
X102595238Y-112505038D02*
X102642857Y-112552657D01*
X102642857Y-112552657D02*
X102690476Y-112647895D01*
X102690476Y-112647895D02*
X102690476Y-112743133D01*
X102690476Y-112743133D02*
X102642857Y-112885990D01*
X102642857Y-112885990D02*
X102071429Y-113457419D01*
X102071429Y-113457419D02*
X102690476Y-113457419D01*
X103547619Y-112457419D02*
X103357143Y-112457419D01*
X103357143Y-112457419D02*
X103261905Y-112505038D01*
X103261905Y-112505038D02*
X103214286Y-112552657D01*
X103214286Y-112552657D02*
X103119048Y-112695514D01*
X103119048Y-112695514D02*
X103071429Y-112885990D01*
X103071429Y-112885990D02*
X103071429Y-113266942D01*
X103071429Y-113266942D02*
X103119048Y-113362180D01*
X103119048Y-113362180D02*
X103166667Y-113409800D01*
X103166667Y-113409800D02*
X103261905Y-113457419D01*
X103261905Y-113457419D02*
X103452381Y-113457419D01*
X103452381Y-113457419D02*
X103547619Y-113409800D01*
X103547619Y-113409800D02*
X103595238Y-113362180D01*
X103595238Y-113362180D02*
X103642857Y-113266942D01*
X103642857Y-113266942D02*
X103642857Y-113028847D01*
X103642857Y-113028847D02*
X103595238Y-112933609D01*
X103595238Y-112933609D02*
X103547619Y-112885990D01*
X103547619Y-112885990D02*
X103452381Y-112838371D01*
X103452381Y-112838371D02*
X103261905Y-112838371D01*
X103261905Y-112838371D02*
X103166667Y-112885990D01*
X103166667Y-112885990D02*
X103119048Y-112933609D01*
X103119048Y-112933609D02*
X103071429Y-113028847D01*
X179690476Y-88957419D02*
X179690476Y-89671704D01*
X179690476Y-89671704D02*
X179642857Y-89814561D01*
X179642857Y-89814561D02*
X179547619Y-89909800D01*
X179547619Y-89909800D02*
X179404762Y-89957419D01*
X179404762Y-89957419D02*
X179309524Y-89957419D01*
X180690476Y-89957419D02*
X180119048Y-89957419D01*
X180404762Y-89957419D02*
X180404762Y-88957419D01*
X180404762Y-88957419D02*
X180309524Y-89100276D01*
X180309524Y-89100276D02*
X180214286Y-89195514D01*
X180214286Y-89195514D02*
X180119048Y-89243133D01*
X181023810Y-88957419D02*
X181690476Y-88957419D01*
X181690476Y-88957419D02*
X181261905Y-89957419D01*
X127690476Y-104957419D02*
X127690476Y-105671704D01*
X127690476Y-105671704D02*
X127642857Y-105814561D01*
X127642857Y-105814561D02*
X127547619Y-105909800D01*
X127547619Y-105909800D02*
X127404762Y-105957419D01*
X127404762Y-105957419D02*
X127309524Y-105957419D01*
X128071429Y-104957419D02*
X128690476Y-104957419D01*
X128690476Y-104957419D02*
X128357143Y-105338371D01*
X128357143Y-105338371D02*
X128500000Y-105338371D01*
X128500000Y-105338371D02*
X128595238Y-105385990D01*
X128595238Y-105385990D02*
X128642857Y-105433609D01*
X128642857Y-105433609D02*
X128690476Y-105528847D01*
X128690476Y-105528847D02*
X128690476Y-105766942D01*
X128690476Y-105766942D02*
X128642857Y-105862180D01*
X128642857Y-105862180D02*
X128595238Y-105909800D01*
X128595238Y-105909800D02*
X128500000Y-105957419D01*
X128500000Y-105957419D02*
X128214286Y-105957419D01*
X128214286Y-105957419D02*
X128119048Y-105909800D01*
X128119048Y-105909800D02*
X128071429Y-105862180D01*
X129309524Y-104957419D02*
X129404762Y-104957419D01*
X129404762Y-104957419D02*
X129500000Y-105005038D01*
X129500000Y-105005038D02*
X129547619Y-105052657D01*
X129547619Y-105052657D02*
X129595238Y-105147895D01*
X129595238Y-105147895D02*
X129642857Y-105338371D01*
X129642857Y-105338371D02*
X129642857Y-105576466D01*
X129642857Y-105576466D02*
X129595238Y-105766942D01*
X129595238Y-105766942D02*
X129547619Y-105862180D01*
X129547619Y-105862180D02*
X129500000Y-105909800D01*
X129500000Y-105909800D02*
X129404762Y-105957419D01*
X129404762Y-105957419D02*
X129309524Y-105957419D01*
X129309524Y-105957419D02*
X129214286Y-105909800D01*
X129214286Y-105909800D02*
X129166667Y-105862180D01*
X129166667Y-105862180D02*
X129119048Y-105766942D01*
X129119048Y-105766942D02*
X129071429Y-105576466D01*
X129071429Y-105576466D02*
X129071429Y-105338371D01*
X129071429Y-105338371D02*
X129119048Y-105147895D01*
X129119048Y-105147895D02*
X129166667Y-105052657D01*
X129166667Y-105052657D02*
X129214286Y-105005038D01*
X129214286Y-105005038D02*
X129309524Y-104957419D01*
X101690476Y-104957419D02*
X101690476Y-105671704D01*
X101690476Y-105671704D02*
X101642857Y-105814561D01*
X101642857Y-105814561D02*
X101547619Y-105909800D01*
X101547619Y-105909800D02*
X101404762Y-105957419D01*
X101404762Y-105957419D02*
X101309524Y-105957419D01*
X102119048Y-105052657D02*
X102166667Y-105005038D01*
X102166667Y-105005038D02*
X102261905Y-104957419D01*
X102261905Y-104957419D02*
X102500000Y-104957419D01*
X102500000Y-104957419D02*
X102595238Y-105005038D01*
X102595238Y-105005038D02*
X102642857Y-105052657D01*
X102642857Y-105052657D02*
X102690476Y-105147895D01*
X102690476Y-105147895D02*
X102690476Y-105243133D01*
X102690476Y-105243133D02*
X102642857Y-105385990D01*
X102642857Y-105385990D02*
X102071429Y-105957419D01*
X102071429Y-105957419D02*
X102690476Y-105957419D01*
X103595238Y-104957419D02*
X103119048Y-104957419D01*
X103119048Y-104957419D02*
X103071429Y-105433609D01*
X103071429Y-105433609D02*
X103119048Y-105385990D01*
X103119048Y-105385990D02*
X103214286Y-105338371D01*
X103214286Y-105338371D02*
X103452381Y-105338371D01*
X103452381Y-105338371D02*
X103547619Y-105385990D01*
X103547619Y-105385990D02*
X103595238Y-105433609D01*
X103595238Y-105433609D02*
X103642857Y-105528847D01*
X103642857Y-105528847D02*
X103642857Y-105766942D01*
X103642857Y-105766942D02*
X103595238Y-105862180D01*
X103595238Y-105862180D02*
X103547619Y-105909800D01*
X103547619Y-105909800D02*
X103452381Y-105957419D01*
X103452381Y-105957419D02*
X103214286Y-105957419D01*
X103214286Y-105957419D02*
X103119048Y-105909800D01*
X103119048Y-105909800D02*
X103071429Y-105862180D01*
X89166666Y-88957419D02*
X89166666Y-89671704D01*
X89166666Y-89671704D02*
X89119047Y-89814561D01*
X89119047Y-89814561D02*
X89023809Y-89909800D01*
X89023809Y-89909800D02*
X88880952Y-89957419D01*
X88880952Y-89957419D02*
X88785714Y-89957419D01*
X90071428Y-89290752D02*
X90071428Y-89957419D01*
X89833333Y-88909800D02*
X89595238Y-89624085D01*
X89595238Y-89624085D02*
X90214285Y-89624085D01*
X128166666Y-99933609D02*
X127833333Y-99933609D01*
X127833333Y-100457419D02*
X127833333Y-99457419D01*
X127833333Y-99457419D02*
X128309523Y-99457419D01*
X129166666Y-99457419D02*
X128690476Y-99457419D01*
X128690476Y-99457419D02*
X128642857Y-99933609D01*
X128642857Y-99933609D02*
X128690476Y-99885990D01*
X128690476Y-99885990D02*
X128785714Y-99838371D01*
X128785714Y-99838371D02*
X129023809Y-99838371D01*
X129023809Y-99838371D02*
X129119047Y-99885990D01*
X129119047Y-99885990D02*
X129166666Y-99933609D01*
X129166666Y-99933609D02*
X129214285Y-100028847D01*
X129214285Y-100028847D02*
X129214285Y-100266942D01*
X129214285Y-100266942D02*
X129166666Y-100362180D01*
X129166666Y-100362180D02*
X129119047Y-100409800D01*
X129119047Y-100409800D02*
X129023809Y-100457419D01*
X129023809Y-100457419D02*
X128785714Y-100457419D01*
X128785714Y-100457419D02*
X128690476Y-100409800D01*
X128690476Y-100409800D02*
X128642857Y-100362180D01*
X115166666Y-82457419D02*
X115166666Y-83171704D01*
X115166666Y-83171704D02*
X115119047Y-83314561D01*
X115119047Y-83314561D02*
X115023809Y-83409800D01*
X115023809Y-83409800D02*
X114880952Y-83457419D01*
X114880952Y-83457419D02*
X114785714Y-83457419D01*
X115547619Y-82457419D02*
X116214285Y-82457419D01*
X116214285Y-82457419D02*
X115785714Y-83457419D01*
X179690476Y-82457419D02*
X179690476Y-83171704D01*
X179690476Y-83171704D02*
X179642857Y-83314561D01*
X179642857Y-83314561D02*
X179547619Y-83409800D01*
X179547619Y-83409800D02*
X179404762Y-83457419D01*
X179404762Y-83457419D02*
X179309524Y-83457419D01*
X180690476Y-83457419D02*
X180119048Y-83457419D01*
X180404762Y-83457419D02*
X180404762Y-82457419D01*
X180404762Y-82457419D02*
X180309524Y-82600276D01*
X180309524Y-82600276D02*
X180214286Y-82695514D01*
X180214286Y-82695514D02*
X180119048Y-82743133D01*
X181547619Y-82457419D02*
X181357143Y-82457419D01*
X181357143Y-82457419D02*
X181261905Y-82505038D01*
X181261905Y-82505038D02*
X181214286Y-82552657D01*
X181214286Y-82552657D02*
X181119048Y-82695514D01*
X181119048Y-82695514D02*
X181071429Y-82885990D01*
X181071429Y-82885990D02*
X181071429Y-83266942D01*
X181071429Y-83266942D02*
X181119048Y-83362180D01*
X181119048Y-83362180D02*
X181166667Y-83409800D01*
X181166667Y-83409800D02*
X181261905Y-83457419D01*
X181261905Y-83457419D02*
X181452381Y-83457419D01*
X181452381Y-83457419D02*
X181547619Y-83409800D01*
X181547619Y-83409800D02*
X181595238Y-83362180D01*
X181595238Y-83362180D02*
X181642857Y-83266942D01*
X181642857Y-83266942D02*
X181642857Y-83028847D01*
X181642857Y-83028847D02*
X181595238Y-82933609D01*
X181595238Y-82933609D02*
X181547619Y-82885990D01*
X181547619Y-82885990D02*
X181452381Y-82838371D01*
X181452381Y-82838371D02*
X181261905Y-82838371D01*
X181261905Y-82838371D02*
X181166667Y-82885990D01*
X181166667Y-82885990D02*
X181119048Y-82933609D01*
X181119048Y-82933609D02*
X181071429Y-83028847D01*
X114690476Y-97457419D02*
X114690476Y-98171704D01*
X114690476Y-98171704D02*
X114642857Y-98314561D01*
X114642857Y-98314561D02*
X114547619Y-98409800D01*
X114547619Y-98409800D02*
X114404762Y-98457419D01*
X114404762Y-98457419D02*
X114309524Y-98457419D01*
X115119048Y-97552657D02*
X115166667Y-97505038D01*
X115166667Y-97505038D02*
X115261905Y-97457419D01*
X115261905Y-97457419D02*
X115500000Y-97457419D01*
X115500000Y-97457419D02*
X115595238Y-97505038D01*
X115595238Y-97505038D02*
X115642857Y-97552657D01*
X115642857Y-97552657D02*
X115690476Y-97647895D01*
X115690476Y-97647895D02*
X115690476Y-97743133D01*
X115690476Y-97743133D02*
X115642857Y-97885990D01*
X115642857Y-97885990D02*
X115071429Y-98457419D01*
X115071429Y-98457419D02*
X115690476Y-98457419D01*
X116023810Y-97457419D02*
X116690476Y-97457419D01*
X116690476Y-97457419D02*
X116261905Y-98457419D01*
X102666666Y-99433609D02*
X102333333Y-99433609D01*
X102333333Y-99957419D02*
X102333333Y-98957419D01*
X102333333Y-98957419D02*
X102809523Y-98957419D01*
X103095238Y-98957419D02*
X103714285Y-98957419D01*
X103714285Y-98957419D02*
X103380952Y-99338371D01*
X103380952Y-99338371D02*
X103523809Y-99338371D01*
X103523809Y-99338371D02*
X103619047Y-99385990D01*
X103619047Y-99385990D02*
X103666666Y-99433609D01*
X103666666Y-99433609D02*
X103714285Y-99528847D01*
X103714285Y-99528847D02*
X103714285Y-99766942D01*
X103714285Y-99766942D02*
X103666666Y-99862180D01*
X103666666Y-99862180D02*
X103619047Y-99909800D01*
X103619047Y-99909800D02*
X103523809Y-99957419D01*
X103523809Y-99957419D02*
X103238095Y-99957419D01*
X103238095Y-99957419D02*
X103142857Y-99909800D01*
X103142857Y-99909800D02*
X103095238Y-99862180D01*
X115166666Y-99433609D02*
X114833333Y-99433609D01*
X114833333Y-99957419D02*
X114833333Y-98957419D01*
X114833333Y-98957419D02*
X115309523Y-98957419D01*
X116119047Y-99290752D02*
X116119047Y-99957419D01*
X115880952Y-98909800D02*
X115642857Y-99624085D01*
X115642857Y-99624085D02*
X116261904Y-99624085D01*
X153690476Y-112457419D02*
X153690476Y-113171704D01*
X153690476Y-113171704D02*
X153642857Y-113314561D01*
X153642857Y-113314561D02*
X153547619Y-113409800D01*
X153547619Y-113409800D02*
X153404762Y-113457419D01*
X153404762Y-113457419D02*
X153309524Y-113457419D01*
X154071429Y-112457419D02*
X154690476Y-112457419D01*
X154690476Y-112457419D02*
X154357143Y-112838371D01*
X154357143Y-112838371D02*
X154500000Y-112838371D01*
X154500000Y-112838371D02*
X154595238Y-112885990D01*
X154595238Y-112885990D02*
X154642857Y-112933609D01*
X154642857Y-112933609D02*
X154690476Y-113028847D01*
X154690476Y-113028847D02*
X154690476Y-113266942D01*
X154690476Y-113266942D02*
X154642857Y-113362180D01*
X154642857Y-113362180D02*
X154595238Y-113409800D01*
X154595238Y-113409800D02*
X154500000Y-113457419D01*
X154500000Y-113457419D02*
X154214286Y-113457419D01*
X154214286Y-113457419D02*
X154119048Y-113409800D01*
X154119048Y-113409800D02*
X154071429Y-113362180D01*
X155547619Y-112457419D02*
X155357143Y-112457419D01*
X155357143Y-112457419D02*
X155261905Y-112505038D01*
X155261905Y-112505038D02*
X155214286Y-112552657D01*
X155214286Y-112552657D02*
X155119048Y-112695514D01*
X155119048Y-112695514D02*
X155071429Y-112885990D01*
X155071429Y-112885990D02*
X155071429Y-113266942D01*
X155071429Y-113266942D02*
X155119048Y-113362180D01*
X155119048Y-113362180D02*
X155166667Y-113409800D01*
X155166667Y-113409800D02*
X155261905Y-113457419D01*
X155261905Y-113457419D02*
X155452381Y-113457419D01*
X155452381Y-113457419D02*
X155547619Y-113409800D01*
X155547619Y-113409800D02*
X155595238Y-113362180D01*
X155595238Y-113362180D02*
X155642857Y-113266942D01*
X155642857Y-113266942D02*
X155642857Y-113028847D01*
X155642857Y-113028847D02*
X155595238Y-112933609D01*
X155595238Y-112933609D02*
X155547619Y-112885990D01*
X155547619Y-112885990D02*
X155452381Y-112838371D01*
X155452381Y-112838371D02*
X155261905Y-112838371D01*
X155261905Y-112838371D02*
X155166667Y-112885990D01*
X155166667Y-112885990D02*
X155119048Y-112933609D01*
X155119048Y-112933609D02*
X155071429Y-113028847D01*
X192690476Y-97457419D02*
X192690476Y-98171704D01*
X192690476Y-98171704D02*
X192642857Y-98314561D01*
X192642857Y-98314561D02*
X192547619Y-98409800D01*
X192547619Y-98409800D02*
X192404762Y-98457419D01*
X192404762Y-98457419D02*
X192309524Y-98457419D01*
X193595238Y-97790752D02*
X193595238Y-98457419D01*
X193357143Y-97409800D02*
X193119048Y-98124085D01*
X193119048Y-98124085D02*
X193738095Y-98124085D01*
X194071429Y-97552657D02*
X194119048Y-97505038D01*
X194119048Y-97505038D02*
X194214286Y-97457419D01*
X194214286Y-97457419D02*
X194452381Y-97457419D01*
X194452381Y-97457419D02*
X194547619Y-97505038D01*
X194547619Y-97505038D02*
X194595238Y-97552657D01*
X194595238Y-97552657D02*
X194642857Y-97647895D01*
X194642857Y-97647895D02*
X194642857Y-97743133D01*
X194642857Y-97743133D02*
X194595238Y-97885990D01*
X194595238Y-97885990D02*
X194023810Y-98457419D01*
X194023810Y-98457419D02*
X194642857Y-98457419D01*
X75690476Y-104957419D02*
X75690476Y-105671704D01*
X75690476Y-105671704D02*
X75642857Y-105814561D01*
X75642857Y-105814561D02*
X75547619Y-105909800D01*
X75547619Y-105909800D02*
X75404762Y-105957419D01*
X75404762Y-105957419D02*
X75309524Y-105957419D01*
X76119048Y-105052657D02*
X76166667Y-105005038D01*
X76166667Y-105005038D02*
X76261905Y-104957419D01*
X76261905Y-104957419D02*
X76500000Y-104957419D01*
X76500000Y-104957419D02*
X76595238Y-105005038D01*
X76595238Y-105005038D02*
X76642857Y-105052657D01*
X76642857Y-105052657D02*
X76690476Y-105147895D01*
X76690476Y-105147895D02*
X76690476Y-105243133D01*
X76690476Y-105243133D02*
X76642857Y-105385990D01*
X76642857Y-105385990D02*
X76071429Y-105957419D01*
X76071429Y-105957419D02*
X76690476Y-105957419D01*
X77309524Y-104957419D02*
X77404762Y-104957419D01*
X77404762Y-104957419D02*
X77500000Y-105005038D01*
X77500000Y-105005038D02*
X77547619Y-105052657D01*
X77547619Y-105052657D02*
X77595238Y-105147895D01*
X77595238Y-105147895D02*
X77642857Y-105338371D01*
X77642857Y-105338371D02*
X77642857Y-105576466D01*
X77642857Y-105576466D02*
X77595238Y-105766942D01*
X77595238Y-105766942D02*
X77547619Y-105862180D01*
X77547619Y-105862180D02*
X77500000Y-105909800D01*
X77500000Y-105909800D02*
X77404762Y-105957419D01*
X77404762Y-105957419D02*
X77309524Y-105957419D01*
X77309524Y-105957419D02*
X77214286Y-105909800D01*
X77214286Y-105909800D02*
X77166667Y-105862180D01*
X77166667Y-105862180D02*
X77119048Y-105766942D01*
X77119048Y-105766942D02*
X77071429Y-105576466D01*
X77071429Y-105576466D02*
X77071429Y-105338371D01*
X77071429Y-105338371D02*
X77119048Y-105147895D01*
X77119048Y-105147895D02*
X77166667Y-105052657D01*
X77166667Y-105052657D02*
X77214286Y-105005038D01*
X77214286Y-105005038D02*
X77309524Y-104957419D01*
X192690476Y-88957419D02*
X192690476Y-89671704D01*
X192690476Y-89671704D02*
X192642857Y-89814561D01*
X192642857Y-89814561D02*
X192547619Y-89909800D01*
X192547619Y-89909800D02*
X192404762Y-89957419D01*
X192404762Y-89957419D02*
X192309524Y-89957419D01*
X193690476Y-89957419D02*
X193119048Y-89957419D01*
X193404762Y-89957419D02*
X193404762Y-88957419D01*
X193404762Y-88957419D02*
X193309524Y-89100276D01*
X193309524Y-89100276D02*
X193214286Y-89195514D01*
X193214286Y-89195514D02*
X193119048Y-89243133D01*
X194166667Y-89957419D02*
X194357143Y-89957419D01*
X194357143Y-89957419D02*
X194452381Y-89909800D01*
X194452381Y-89909800D02*
X194500000Y-89862180D01*
X194500000Y-89862180D02*
X194595238Y-89719323D01*
X194595238Y-89719323D02*
X194642857Y-89528847D01*
X194642857Y-89528847D02*
X194642857Y-89147895D01*
X194642857Y-89147895D02*
X194595238Y-89052657D01*
X194595238Y-89052657D02*
X194547619Y-89005038D01*
X194547619Y-89005038D02*
X194452381Y-88957419D01*
X194452381Y-88957419D02*
X194261905Y-88957419D01*
X194261905Y-88957419D02*
X194166667Y-89005038D01*
X194166667Y-89005038D02*
X194119048Y-89052657D01*
X194119048Y-89052657D02*
X194071429Y-89147895D01*
X194071429Y-89147895D02*
X194071429Y-89385990D01*
X194071429Y-89385990D02*
X194119048Y-89481228D01*
X194119048Y-89481228D02*
X194166667Y-89528847D01*
X194166667Y-89528847D02*
X194261905Y-89576466D01*
X194261905Y-89576466D02*
X194452381Y-89576466D01*
X194452381Y-89576466D02*
X194547619Y-89528847D01*
X194547619Y-89528847D02*
X194595238Y-89481228D01*
X194595238Y-89481228D02*
X194642857Y-89385990D01*
X167166666Y-99933609D02*
X166833333Y-99933609D01*
X166833333Y-100457419D02*
X166833333Y-99457419D01*
X166833333Y-99457419D02*
X167309523Y-99457419D01*
X167833333Y-99885990D02*
X167738095Y-99838371D01*
X167738095Y-99838371D02*
X167690476Y-99790752D01*
X167690476Y-99790752D02*
X167642857Y-99695514D01*
X167642857Y-99695514D02*
X167642857Y-99647895D01*
X167642857Y-99647895D02*
X167690476Y-99552657D01*
X167690476Y-99552657D02*
X167738095Y-99505038D01*
X167738095Y-99505038D02*
X167833333Y-99457419D01*
X167833333Y-99457419D02*
X168023809Y-99457419D01*
X168023809Y-99457419D02*
X168119047Y-99505038D01*
X168119047Y-99505038D02*
X168166666Y-99552657D01*
X168166666Y-99552657D02*
X168214285Y-99647895D01*
X168214285Y-99647895D02*
X168214285Y-99695514D01*
X168214285Y-99695514D02*
X168166666Y-99790752D01*
X168166666Y-99790752D02*
X168119047Y-99838371D01*
X168119047Y-99838371D02*
X168023809Y-99885990D01*
X168023809Y-99885990D02*
X167833333Y-99885990D01*
X167833333Y-99885990D02*
X167738095Y-99933609D01*
X167738095Y-99933609D02*
X167690476Y-99981228D01*
X167690476Y-99981228D02*
X167642857Y-100076466D01*
X167642857Y-100076466D02*
X167642857Y-100266942D01*
X167642857Y-100266942D02*
X167690476Y-100362180D01*
X167690476Y-100362180D02*
X167738095Y-100409800D01*
X167738095Y-100409800D02*
X167833333Y-100457419D01*
X167833333Y-100457419D02*
X168023809Y-100457419D01*
X168023809Y-100457419D02*
X168119047Y-100409800D01*
X168119047Y-100409800D02*
X168166666Y-100362180D01*
X168166666Y-100362180D02*
X168214285Y-100266942D01*
X168214285Y-100266942D02*
X168214285Y-100076466D01*
X168214285Y-100076466D02*
X168166666Y-99981228D01*
X168166666Y-99981228D02*
X168119047Y-99933609D01*
X168119047Y-99933609D02*
X168023809Y-99885990D01*
X115166666Y-88957419D02*
X115166666Y-89671704D01*
X115166666Y-89671704D02*
X115119047Y-89814561D01*
X115119047Y-89814561D02*
X115023809Y-89909800D01*
X115023809Y-89909800D02*
X114880952Y-89957419D01*
X114880952Y-89957419D02*
X114785714Y-89957419D01*
X115785714Y-89385990D02*
X115690476Y-89338371D01*
X115690476Y-89338371D02*
X115642857Y-89290752D01*
X115642857Y-89290752D02*
X115595238Y-89195514D01*
X115595238Y-89195514D02*
X115595238Y-89147895D01*
X115595238Y-89147895D02*
X115642857Y-89052657D01*
X115642857Y-89052657D02*
X115690476Y-89005038D01*
X115690476Y-89005038D02*
X115785714Y-88957419D01*
X115785714Y-88957419D02*
X115976190Y-88957419D01*
X115976190Y-88957419D02*
X116071428Y-89005038D01*
X116071428Y-89005038D02*
X116119047Y-89052657D01*
X116119047Y-89052657D02*
X116166666Y-89147895D01*
X116166666Y-89147895D02*
X116166666Y-89195514D01*
X116166666Y-89195514D02*
X116119047Y-89290752D01*
X116119047Y-89290752D02*
X116071428Y-89338371D01*
X116071428Y-89338371D02*
X115976190Y-89385990D01*
X115976190Y-89385990D02*
X115785714Y-89385990D01*
X115785714Y-89385990D02*
X115690476Y-89433609D01*
X115690476Y-89433609D02*
X115642857Y-89481228D01*
X115642857Y-89481228D02*
X115595238Y-89576466D01*
X115595238Y-89576466D02*
X115595238Y-89766942D01*
X115595238Y-89766942D02*
X115642857Y-89862180D01*
X115642857Y-89862180D02*
X115690476Y-89909800D01*
X115690476Y-89909800D02*
X115785714Y-89957419D01*
X115785714Y-89957419D02*
X115976190Y-89957419D01*
X115976190Y-89957419D02*
X116071428Y-89909800D01*
X116071428Y-89909800D02*
X116119047Y-89862180D01*
X116119047Y-89862180D02*
X116166666Y-89766942D01*
X116166666Y-89766942D02*
X116166666Y-89576466D01*
X116166666Y-89576466D02*
X116119047Y-89481228D01*
X116119047Y-89481228D02*
X116071428Y-89433609D01*
X116071428Y-89433609D02*
X115976190Y-89385990D01*
X127690476Y-88957419D02*
X127690476Y-89671704D01*
X127690476Y-89671704D02*
X127642857Y-89814561D01*
X127642857Y-89814561D02*
X127547619Y-89909800D01*
X127547619Y-89909800D02*
X127404762Y-89957419D01*
X127404762Y-89957419D02*
X127309524Y-89957419D01*
X128690476Y-89957419D02*
X128119048Y-89957419D01*
X128404762Y-89957419D02*
X128404762Y-88957419D01*
X128404762Y-88957419D02*
X128309524Y-89100276D01*
X128309524Y-89100276D02*
X128214286Y-89195514D01*
X128214286Y-89195514D02*
X128119048Y-89243133D01*
X129309524Y-88957419D02*
X129404762Y-88957419D01*
X129404762Y-88957419D02*
X129500000Y-89005038D01*
X129500000Y-89005038D02*
X129547619Y-89052657D01*
X129547619Y-89052657D02*
X129595238Y-89147895D01*
X129595238Y-89147895D02*
X129642857Y-89338371D01*
X129642857Y-89338371D02*
X129642857Y-89576466D01*
X129642857Y-89576466D02*
X129595238Y-89766942D01*
X129595238Y-89766942D02*
X129547619Y-89862180D01*
X129547619Y-89862180D02*
X129500000Y-89909800D01*
X129500000Y-89909800D02*
X129404762Y-89957419D01*
X129404762Y-89957419D02*
X129309524Y-89957419D01*
X129309524Y-89957419D02*
X129214286Y-89909800D01*
X129214286Y-89909800D02*
X129166667Y-89862180D01*
X129166667Y-89862180D02*
X129119048Y-89766942D01*
X129119048Y-89766942D02*
X129071429Y-89576466D01*
X129071429Y-89576466D02*
X129071429Y-89338371D01*
X129071429Y-89338371D02*
X129119048Y-89147895D01*
X129119048Y-89147895D02*
X129166667Y-89052657D01*
X129166667Y-89052657D02*
X129214286Y-89005038D01*
X129214286Y-89005038D02*
X129309524Y-88957419D01*
X88690476Y-104957419D02*
X88690476Y-105671704D01*
X88690476Y-105671704D02*
X88642857Y-105814561D01*
X88642857Y-105814561D02*
X88547619Y-105909800D01*
X88547619Y-105909800D02*
X88404762Y-105957419D01*
X88404762Y-105957419D02*
X88309524Y-105957419D01*
X89119048Y-105052657D02*
X89166667Y-105005038D01*
X89166667Y-105005038D02*
X89261905Y-104957419D01*
X89261905Y-104957419D02*
X89500000Y-104957419D01*
X89500000Y-104957419D02*
X89595238Y-105005038D01*
X89595238Y-105005038D02*
X89642857Y-105052657D01*
X89642857Y-105052657D02*
X89690476Y-105147895D01*
X89690476Y-105147895D02*
X89690476Y-105243133D01*
X89690476Y-105243133D02*
X89642857Y-105385990D01*
X89642857Y-105385990D02*
X89071429Y-105957419D01*
X89071429Y-105957419D02*
X89690476Y-105957419D01*
X90023810Y-104957419D02*
X90642857Y-104957419D01*
X90642857Y-104957419D02*
X90309524Y-105338371D01*
X90309524Y-105338371D02*
X90452381Y-105338371D01*
X90452381Y-105338371D02*
X90547619Y-105385990D01*
X90547619Y-105385990D02*
X90595238Y-105433609D01*
X90595238Y-105433609D02*
X90642857Y-105528847D01*
X90642857Y-105528847D02*
X90642857Y-105766942D01*
X90642857Y-105766942D02*
X90595238Y-105862180D01*
X90595238Y-105862180D02*
X90547619Y-105909800D01*
X90547619Y-105909800D02*
X90452381Y-105957419D01*
X90452381Y-105957419D02*
X90166667Y-105957419D01*
X90166667Y-105957419D02*
X90071429Y-105909800D01*
X90071429Y-105909800D02*
X90023810Y-105862180D01*
X154166666Y-99933609D02*
X153833333Y-99933609D01*
X153833333Y-100457419D02*
X153833333Y-99457419D01*
X153833333Y-99457419D02*
X154309523Y-99457419D01*
X154595238Y-99457419D02*
X155261904Y-99457419D01*
X155261904Y-99457419D02*
X154833333Y-100457419D01*
X127690476Y-97457419D02*
X127690476Y-98171704D01*
X127690476Y-98171704D02*
X127642857Y-98314561D01*
X127642857Y-98314561D02*
X127547619Y-98409800D01*
X127547619Y-98409800D02*
X127404762Y-98457419D01*
X127404762Y-98457419D02*
X127309524Y-98457419D01*
X128690476Y-98457419D02*
X128119048Y-98457419D01*
X128404762Y-98457419D02*
X128404762Y-97457419D01*
X128404762Y-97457419D02*
X128309524Y-97600276D01*
X128309524Y-97600276D02*
X128214286Y-97695514D01*
X128214286Y-97695514D02*
X128119048Y-97743133D01*
X129642857Y-98457419D02*
X129071429Y-98457419D01*
X129357143Y-98457419D02*
X129357143Y-97457419D01*
X129357143Y-97457419D02*
X129261905Y-97600276D01*
X129261905Y-97600276D02*
X129166667Y-97695514D01*
X129166667Y-97695514D02*
X129071429Y-97743133D01*
X89166666Y-82457419D02*
X89166666Y-83171704D01*
X89166666Y-83171704D02*
X89119047Y-83314561D01*
X89119047Y-83314561D02*
X89023809Y-83409800D01*
X89023809Y-83409800D02*
X88880952Y-83457419D01*
X88880952Y-83457419D02*
X88785714Y-83457419D01*
X89547619Y-82457419D02*
X90166666Y-82457419D01*
X90166666Y-82457419D02*
X89833333Y-82838371D01*
X89833333Y-82838371D02*
X89976190Y-82838371D01*
X89976190Y-82838371D02*
X90071428Y-82885990D01*
X90071428Y-82885990D02*
X90119047Y-82933609D01*
X90119047Y-82933609D02*
X90166666Y-83028847D01*
X90166666Y-83028847D02*
X90166666Y-83266942D01*
X90166666Y-83266942D02*
X90119047Y-83362180D01*
X90119047Y-83362180D02*
X90071428Y-83409800D01*
X90071428Y-83409800D02*
X89976190Y-83457419D01*
X89976190Y-83457419D02*
X89690476Y-83457419D01*
X89690476Y-83457419D02*
X89595238Y-83409800D01*
X89595238Y-83409800D02*
X89547619Y-83362180D01*
X76166666Y-88957419D02*
X76166666Y-89671704D01*
X76166666Y-89671704D02*
X76119047Y-89814561D01*
X76119047Y-89814561D02*
X76023809Y-89909800D01*
X76023809Y-89909800D02*
X75880952Y-89957419D01*
X75880952Y-89957419D02*
X75785714Y-89957419D01*
X76595238Y-89052657D02*
X76642857Y-89005038D01*
X76642857Y-89005038D02*
X76738095Y-88957419D01*
X76738095Y-88957419D02*
X76976190Y-88957419D01*
X76976190Y-88957419D02*
X77071428Y-89005038D01*
X77071428Y-89005038D02*
X77119047Y-89052657D01*
X77119047Y-89052657D02*
X77166666Y-89147895D01*
X77166666Y-89147895D02*
X77166666Y-89243133D01*
X77166666Y-89243133D02*
X77119047Y-89385990D01*
X77119047Y-89385990D02*
X76547619Y-89957419D01*
X76547619Y-89957419D02*
X77166666Y-89957419D01*
X166690476Y-97457419D02*
X166690476Y-98171704D01*
X166690476Y-98171704D02*
X166642857Y-98314561D01*
X166642857Y-98314561D02*
X166547619Y-98409800D01*
X166547619Y-98409800D02*
X166404762Y-98457419D01*
X166404762Y-98457419D02*
X166309524Y-98457419D01*
X167071429Y-97457419D02*
X167690476Y-97457419D01*
X167690476Y-97457419D02*
X167357143Y-97838371D01*
X167357143Y-97838371D02*
X167500000Y-97838371D01*
X167500000Y-97838371D02*
X167595238Y-97885990D01*
X167595238Y-97885990D02*
X167642857Y-97933609D01*
X167642857Y-97933609D02*
X167690476Y-98028847D01*
X167690476Y-98028847D02*
X167690476Y-98266942D01*
X167690476Y-98266942D02*
X167642857Y-98362180D01*
X167642857Y-98362180D02*
X167595238Y-98409800D01*
X167595238Y-98409800D02*
X167500000Y-98457419D01*
X167500000Y-98457419D02*
X167214286Y-98457419D01*
X167214286Y-98457419D02*
X167119048Y-98409800D01*
X167119048Y-98409800D02*
X167071429Y-98362180D01*
X168023810Y-97457419D02*
X168690476Y-97457419D01*
X168690476Y-97457419D02*
X168261905Y-98457419D01*
X102166666Y-88957419D02*
X102166666Y-89671704D01*
X102166666Y-89671704D02*
X102119047Y-89814561D01*
X102119047Y-89814561D02*
X102023809Y-89909800D01*
X102023809Y-89909800D02*
X101880952Y-89957419D01*
X101880952Y-89957419D02*
X101785714Y-89957419D01*
X103071428Y-88957419D02*
X102880952Y-88957419D01*
X102880952Y-88957419D02*
X102785714Y-89005038D01*
X102785714Y-89005038D02*
X102738095Y-89052657D01*
X102738095Y-89052657D02*
X102642857Y-89195514D01*
X102642857Y-89195514D02*
X102595238Y-89385990D01*
X102595238Y-89385990D02*
X102595238Y-89766942D01*
X102595238Y-89766942D02*
X102642857Y-89862180D01*
X102642857Y-89862180D02*
X102690476Y-89909800D01*
X102690476Y-89909800D02*
X102785714Y-89957419D01*
X102785714Y-89957419D02*
X102976190Y-89957419D01*
X102976190Y-89957419D02*
X103071428Y-89909800D01*
X103071428Y-89909800D02*
X103119047Y-89862180D01*
X103119047Y-89862180D02*
X103166666Y-89766942D01*
X103166666Y-89766942D02*
X103166666Y-89528847D01*
X103166666Y-89528847D02*
X103119047Y-89433609D01*
X103119047Y-89433609D02*
X103071428Y-89385990D01*
X103071428Y-89385990D02*
X102976190Y-89338371D01*
X102976190Y-89338371D02*
X102785714Y-89338371D01*
X102785714Y-89338371D02*
X102690476Y-89385990D01*
X102690476Y-89385990D02*
X102642857Y-89433609D01*
X102642857Y-89433609D02*
X102595238Y-89528847D01*
X77166666Y-99433609D02*
X76833333Y-99433609D01*
X76833333Y-99957419D02*
X76833333Y-98957419D01*
X76833333Y-98957419D02*
X77309523Y-98957419D01*
X78214285Y-99957419D02*
X77642857Y-99957419D01*
X77928571Y-99957419D02*
X77928571Y-98957419D01*
X77928571Y-98957419D02*
X77833333Y-99100276D01*
X77833333Y-99100276D02*
X77738095Y-99195514D01*
X77738095Y-99195514D02*
X77642857Y-99243133D01*
X75690476Y-112457419D02*
X75690476Y-113171704D01*
X75690476Y-113171704D02*
X75642857Y-113314561D01*
X75642857Y-113314561D02*
X75547619Y-113409800D01*
X75547619Y-113409800D02*
X75404762Y-113457419D01*
X75404762Y-113457419D02*
X75309524Y-113457419D01*
X76119048Y-112552657D02*
X76166667Y-112505038D01*
X76166667Y-112505038D02*
X76261905Y-112457419D01*
X76261905Y-112457419D02*
X76500000Y-112457419D01*
X76500000Y-112457419D02*
X76595238Y-112505038D01*
X76595238Y-112505038D02*
X76642857Y-112552657D01*
X76642857Y-112552657D02*
X76690476Y-112647895D01*
X76690476Y-112647895D02*
X76690476Y-112743133D01*
X76690476Y-112743133D02*
X76642857Y-112885990D01*
X76642857Y-112885990D02*
X76071429Y-113457419D01*
X76071429Y-113457419D02*
X76690476Y-113457419D01*
X77642857Y-113457419D02*
X77071429Y-113457419D01*
X77357143Y-113457419D02*
X77357143Y-112457419D01*
X77357143Y-112457419D02*
X77261905Y-112600276D01*
X77261905Y-112600276D02*
X77166667Y-112695514D01*
X77166667Y-112695514D02*
X77071429Y-112743133D01*
X179690476Y-104957419D02*
X179690476Y-105671704D01*
X179690476Y-105671704D02*
X179642857Y-105814561D01*
X179642857Y-105814561D02*
X179547619Y-105909800D01*
X179547619Y-105909800D02*
X179404762Y-105957419D01*
X179404762Y-105957419D02*
X179309524Y-105957419D01*
X180595238Y-105290752D02*
X180595238Y-105957419D01*
X180357143Y-104909800D02*
X180119048Y-105624085D01*
X180119048Y-105624085D02*
X180738095Y-105624085D01*
X181309524Y-104957419D02*
X181404762Y-104957419D01*
X181404762Y-104957419D02*
X181500000Y-105005038D01*
X181500000Y-105005038D02*
X181547619Y-105052657D01*
X181547619Y-105052657D02*
X181595238Y-105147895D01*
X181595238Y-105147895D02*
X181642857Y-105338371D01*
X181642857Y-105338371D02*
X181642857Y-105576466D01*
X181642857Y-105576466D02*
X181595238Y-105766942D01*
X181595238Y-105766942D02*
X181547619Y-105862180D01*
X181547619Y-105862180D02*
X181500000Y-105909800D01*
X181500000Y-105909800D02*
X181404762Y-105957419D01*
X181404762Y-105957419D02*
X181309524Y-105957419D01*
X181309524Y-105957419D02*
X181214286Y-105909800D01*
X181214286Y-105909800D02*
X181166667Y-105862180D01*
X181166667Y-105862180D02*
X181119048Y-105766942D01*
X181119048Y-105766942D02*
X181071429Y-105576466D01*
X181071429Y-105576466D02*
X181071429Y-105338371D01*
X181071429Y-105338371D02*
X181119048Y-105147895D01*
X181119048Y-105147895D02*
X181166667Y-105052657D01*
X181166667Y-105052657D02*
X181214286Y-105005038D01*
X181214286Y-105005038D02*
X181309524Y-104957419D01*
X180666666Y-99933609D02*
X180333333Y-99933609D01*
X180333333Y-100457419D02*
X180333333Y-99457419D01*
X180333333Y-99457419D02*
X180809523Y-99457419D01*
X181238095Y-100457419D02*
X181428571Y-100457419D01*
X181428571Y-100457419D02*
X181523809Y-100409800D01*
X181523809Y-100409800D02*
X181571428Y-100362180D01*
X181571428Y-100362180D02*
X181666666Y-100219323D01*
X181666666Y-100219323D02*
X181714285Y-100028847D01*
X181714285Y-100028847D02*
X181714285Y-99647895D01*
X181714285Y-99647895D02*
X181666666Y-99552657D01*
X181666666Y-99552657D02*
X181619047Y-99505038D01*
X181619047Y-99505038D02*
X181523809Y-99457419D01*
X181523809Y-99457419D02*
X181333333Y-99457419D01*
X181333333Y-99457419D02*
X181238095Y-99505038D01*
X181238095Y-99505038D02*
X181190476Y-99552657D01*
X181190476Y-99552657D02*
X181142857Y-99647895D01*
X181142857Y-99647895D02*
X181142857Y-99885990D01*
X181142857Y-99885990D02*
X181190476Y-99981228D01*
X181190476Y-99981228D02*
X181238095Y-100028847D01*
X181238095Y-100028847D02*
X181333333Y-100076466D01*
X181333333Y-100076466D02*
X181523809Y-100076466D01*
X181523809Y-100076466D02*
X181619047Y-100028847D01*
X181619047Y-100028847D02*
X181666666Y-99981228D01*
X181666666Y-99981228D02*
X181714285Y-99885990D01*
X179690476Y-112457419D02*
X179690476Y-113171704D01*
X179690476Y-113171704D02*
X179642857Y-113314561D01*
X179642857Y-113314561D02*
X179547619Y-113409800D01*
X179547619Y-113409800D02*
X179404762Y-113457419D01*
X179404762Y-113457419D02*
X179309524Y-113457419D01*
X180595238Y-112790752D02*
X180595238Y-113457419D01*
X180357143Y-112409800D02*
X180119048Y-113124085D01*
X180119048Y-113124085D02*
X180738095Y-113124085D01*
X181642857Y-113457419D02*
X181071429Y-113457419D01*
X181357143Y-113457419D02*
X181357143Y-112457419D01*
X181357143Y-112457419D02*
X181261905Y-112600276D01*
X181261905Y-112600276D02*
X181166667Y-112695514D01*
X181166667Y-112695514D02*
X181071429Y-112743133D01*
X140690476Y-88957419D02*
X140690476Y-89671704D01*
X140690476Y-89671704D02*
X140642857Y-89814561D01*
X140642857Y-89814561D02*
X140547619Y-89909800D01*
X140547619Y-89909800D02*
X140404762Y-89957419D01*
X140404762Y-89957419D02*
X140309524Y-89957419D01*
X141690476Y-89957419D02*
X141119048Y-89957419D01*
X141404762Y-89957419D02*
X141404762Y-88957419D01*
X141404762Y-88957419D02*
X141309524Y-89100276D01*
X141309524Y-89100276D02*
X141214286Y-89195514D01*
X141214286Y-89195514D02*
X141119048Y-89243133D01*
X142023810Y-88957419D02*
X142642857Y-88957419D01*
X142642857Y-88957419D02*
X142309524Y-89338371D01*
X142309524Y-89338371D02*
X142452381Y-89338371D01*
X142452381Y-89338371D02*
X142547619Y-89385990D01*
X142547619Y-89385990D02*
X142595238Y-89433609D01*
X142595238Y-89433609D02*
X142642857Y-89528847D01*
X142642857Y-89528847D02*
X142642857Y-89766942D01*
X142642857Y-89766942D02*
X142595238Y-89862180D01*
X142595238Y-89862180D02*
X142547619Y-89909800D01*
X142547619Y-89909800D02*
X142452381Y-89957419D01*
X142452381Y-89957419D02*
X142166667Y-89957419D01*
X142166667Y-89957419D02*
X142071429Y-89909800D01*
X142071429Y-89909800D02*
X142023810Y-89862180D01*
X166690476Y-112457419D02*
X166690476Y-113171704D01*
X166690476Y-113171704D02*
X166642857Y-113314561D01*
X166642857Y-113314561D02*
X166547619Y-113409800D01*
X166547619Y-113409800D02*
X166404762Y-113457419D01*
X166404762Y-113457419D02*
X166309524Y-113457419D01*
X167071429Y-112457419D02*
X167690476Y-112457419D01*
X167690476Y-112457419D02*
X167357143Y-112838371D01*
X167357143Y-112838371D02*
X167500000Y-112838371D01*
X167500000Y-112838371D02*
X167595238Y-112885990D01*
X167595238Y-112885990D02*
X167642857Y-112933609D01*
X167642857Y-112933609D02*
X167690476Y-113028847D01*
X167690476Y-113028847D02*
X167690476Y-113266942D01*
X167690476Y-113266942D02*
X167642857Y-113362180D01*
X167642857Y-113362180D02*
X167595238Y-113409800D01*
X167595238Y-113409800D02*
X167500000Y-113457419D01*
X167500000Y-113457419D02*
X167214286Y-113457419D01*
X167214286Y-113457419D02*
X167119048Y-113409800D01*
X167119048Y-113409800D02*
X167071429Y-113362180D01*
X168166667Y-113457419D02*
X168357143Y-113457419D01*
X168357143Y-113457419D02*
X168452381Y-113409800D01*
X168452381Y-113409800D02*
X168500000Y-113362180D01*
X168500000Y-113362180D02*
X168595238Y-113219323D01*
X168595238Y-113219323D02*
X168642857Y-113028847D01*
X168642857Y-113028847D02*
X168642857Y-112647895D01*
X168642857Y-112647895D02*
X168595238Y-112552657D01*
X168595238Y-112552657D02*
X168547619Y-112505038D01*
X168547619Y-112505038D02*
X168452381Y-112457419D01*
X168452381Y-112457419D02*
X168261905Y-112457419D01*
X168261905Y-112457419D02*
X168166667Y-112505038D01*
X168166667Y-112505038D02*
X168119048Y-112552657D01*
X168119048Y-112552657D02*
X168071429Y-112647895D01*
X168071429Y-112647895D02*
X168071429Y-112885990D01*
X168071429Y-112885990D02*
X168119048Y-112981228D01*
X168119048Y-112981228D02*
X168166667Y-113028847D01*
X168166667Y-113028847D02*
X168261905Y-113076466D01*
X168261905Y-113076466D02*
X168452381Y-113076466D01*
X168452381Y-113076466D02*
X168547619Y-113028847D01*
X168547619Y-113028847D02*
X168595238Y-112981228D01*
X168595238Y-112981228D02*
X168642857Y-112885990D01*
X166690476Y-82457419D02*
X166690476Y-83171704D01*
X166690476Y-83171704D02*
X166642857Y-83314561D01*
X166642857Y-83314561D02*
X166547619Y-83409800D01*
X166547619Y-83409800D02*
X166404762Y-83457419D01*
X166404762Y-83457419D02*
X166309524Y-83457419D01*
X167690476Y-83457419D02*
X167119048Y-83457419D01*
X167404762Y-83457419D02*
X167404762Y-82457419D01*
X167404762Y-82457419D02*
X167309524Y-82600276D01*
X167309524Y-82600276D02*
X167214286Y-82695514D01*
X167214286Y-82695514D02*
X167119048Y-82743133D01*
X168595238Y-82457419D02*
X168119048Y-82457419D01*
X168119048Y-82457419D02*
X168071429Y-82933609D01*
X168071429Y-82933609D02*
X168119048Y-82885990D01*
X168119048Y-82885990D02*
X168214286Y-82838371D01*
X168214286Y-82838371D02*
X168452381Y-82838371D01*
X168452381Y-82838371D02*
X168547619Y-82885990D01*
X168547619Y-82885990D02*
X168595238Y-82933609D01*
X168595238Y-82933609D02*
X168642857Y-83028847D01*
X168642857Y-83028847D02*
X168642857Y-83266942D01*
X168642857Y-83266942D02*
X168595238Y-83362180D01*
X168595238Y-83362180D02*
X168547619Y-83409800D01*
X168547619Y-83409800D02*
X168452381Y-83457419D01*
X168452381Y-83457419D02*
X168214286Y-83457419D01*
X168214286Y-83457419D02*
X168119048Y-83409800D01*
X168119048Y-83409800D02*
X168071429Y-83362180D01*
X166690476Y-104957419D02*
X166690476Y-105671704D01*
X166690476Y-105671704D02*
X166642857Y-105814561D01*
X166642857Y-105814561D02*
X166547619Y-105909800D01*
X166547619Y-105909800D02*
X166404762Y-105957419D01*
X166404762Y-105957419D02*
X166309524Y-105957419D01*
X167071429Y-104957419D02*
X167690476Y-104957419D01*
X167690476Y-104957419D02*
X167357143Y-105338371D01*
X167357143Y-105338371D02*
X167500000Y-105338371D01*
X167500000Y-105338371D02*
X167595238Y-105385990D01*
X167595238Y-105385990D02*
X167642857Y-105433609D01*
X167642857Y-105433609D02*
X167690476Y-105528847D01*
X167690476Y-105528847D02*
X167690476Y-105766942D01*
X167690476Y-105766942D02*
X167642857Y-105862180D01*
X167642857Y-105862180D02*
X167595238Y-105909800D01*
X167595238Y-105909800D02*
X167500000Y-105957419D01*
X167500000Y-105957419D02*
X167214286Y-105957419D01*
X167214286Y-105957419D02*
X167119048Y-105909800D01*
X167119048Y-105909800D02*
X167071429Y-105862180D01*
X168261905Y-105385990D02*
X168166667Y-105338371D01*
X168166667Y-105338371D02*
X168119048Y-105290752D01*
X168119048Y-105290752D02*
X168071429Y-105195514D01*
X168071429Y-105195514D02*
X168071429Y-105147895D01*
X168071429Y-105147895D02*
X168119048Y-105052657D01*
X168119048Y-105052657D02*
X168166667Y-105005038D01*
X168166667Y-105005038D02*
X168261905Y-104957419D01*
X168261905Y-104957419D02*
X168452381Y-104957419D01*
X168452381Y-104957419D02*
X168547619Y-105005038D01*
X168547619Y-105005038D02*
X168595238Y-105052657D01*
X168595238Y-105052657D02*
X168642857Y-105147895D01*
X168642857Y-105147895D02*
X168642857Y-105195514D01*
X168642857Y-105195514D02*
X168595238Y-105290752D01*
X168595238Y-105290752D02*
X168547619Y-105338371D01*
X168547619Y-105338371D02*
X168452381Y-105385990D01*
X168452381Y-105385990D02*
X168261905Y-105385990D01*
X168261905Y-105385990D02*
X168166667Y-105433609D01*
X168166667Y-105433609D02*
X168119048Y-105481228D01*
X168119048Y-105481228D02*
X168071429Y-105576466D01*
X168071429Y-105576466D02*
X168071429Y-105766942D01*
X168071429Y-105766942D02*
X168119048Y-105862180D01*
X168119048Y-105862180D02*
X168166667Y-105909800D01*
X168166667Y-105909800D02*
X168261905Y-105957419D01*
X168261905Y-105957419D02*
X168452381Y-105957419D01*
X168452381Y-105957419D02*
X168547619Y-105909800D01*
X168547619Y-105909800D02*
X168595238Y-105862180D01*
X168595238Y-105862180D02*
X168642857Y-105766942D01*
X168642857Y-105766942D02*
X168642857Y-105576466D01*
X168642857Y-105576466D02*
X168595238Y-105481228D01*
X168595238Y-105481228D02*
X168547619Y-105433609D01*
X168547619Y-105433609D02*
X168452381Y-105385990D01*
X153690476Y-97457419D02*
X153690476Y-98171704D01*
X153690476Y-98171704D02*
X153642857Y-98314561D01*
X153642857Y-98314561D02*
X153547619Y-98409800D01*
X153547619Y-98409800D02*
X153404762Y-98457419D01*
X153404762Y-98457419D02*
X153309524Y-98457419D01*
X154071429Y-97457419D02*
X154690476Y-97457419D01*
X154690476Y-97457419D02*
X154357143Y-97838371D01*
X154357143Y-97838371D02*
X154500000Y-97838371D01*
X154500000Y-97838371D02*
X154595238Y-97885990D01*
X154595238Y-97885990D02*
X154642857Y-97933609D01*
X154642857Y-97933609D02*
X154690476Y-98028847D01*
X154690476Y-98028847D02*
X154690476Y-98266942D01*
X154690476Y-98266942D02*
X154642857Y-98362180D01*
X154642857Y-98362180D02*
X154595238Y-98409800D01*
X154595238Y-98409800D02*
X154500000Y-98457419D01*
X154500000Y-98457419D02*
X154214286Y-98457419D01*
X154214286Y-98457419D02*
X154119048Y-98409800D01*
X154119048Y-98409800D02*
X154071429Y-98362180D01*
X155547619Y-97790752D02*
X155547619Y-98457419D01*
X155309524Y-97409800D02*
X155071429Y-98124085D01*
X155071429Y-98124085D02*
X155690476Y-98124085D01*
X140690476Y-104957419D02*
X140690476Y-105671704D01*
X140690476Y-105671704D02*
X140642857Y-105814561D01*
X140642857Y-105814561D02*
X140547619Y-105909800D01*
X140547619Y-105909800D02*
X140404762Y-105957419D01*
X140404762Y-105957419D02*
X140309524Y-105957419D01*
X141071429Y-104957419D02*
X141690476Y-104957419D01*
X141690476Y-104957419D02*
X141357143Y-105338371D01*
X141357143Y-105338371D02*
X141500000Y-105338371D01*
X141500000Y-105338371D02*
X141595238Y-105385990D01*
X141595238Y-105385990D02*
X141642857Y-105433609D01*
X141642857Y-105433609D02*
X141690476Y-105528847D01*
X141690476Y-105528847D02*
X141690476Y-105766942D01*
X141690476Y-105766942D02*
X141642857Y-105862180D01*
X141642857Y-105862180D02*
X141595238Y-105909800D01*
X141595238Y-105909800D02*
X141500000Y-105957419D01*
X141500000Y-105957419D02*
X141214286Y-105957419D01*
X141214286Y-105957419D02*
X141119048Y-105909800D01*
X141119048Y-105909800D02*
X141071429Y-105862180D01*
X142071429Y-105052657D02*
X142119048Y-105005038D01*
X142119048Y-105005038D02*
X142214286Y-104957419D01*
X142214286Y-104957419D02*
X142452381Y-104957419D01*
X142452381Y-104957419D02*
X142547619Y-105005038D01*
X142547619Y-105005038D02*
X142595238Y-105052657D01*
X142595238Y-105052657D02*
X142642857Y-105147895D01*
X142642857Y-105147895D02*
X142642857Y-105243133D01*
X142642857Y-105243133D02*
X142595238Y-105385990D01*
X142595238Y-105385990D02*
X142023810Y-105957419D01*
X142023810Y-105957419D02*
X142642857Y-105957419D01*
X102166666Y-82457419D02*
X102166666Y-83171704D01*
X102166666Y-83171704D02*
X102119047Y-83314561D01*
X102119047Y-83314561D02*
X102023809Y-83409800D01*
X102023809Y-83409800D02*
X101880952Y-83457419D01*
X101880952Y-83457419D02*
X101785714Y-83457419D01*
X103119047Y-82457419D02*
X102642857Y-82457419D01*
X102642857Y-82457419D02*
X102595238Y-82933609D01*
X102595238Y-82933609D02*
X102642857Y-82885990D01*
X102642857Y-82885990D02*
X102738095Y-82838371D01*
X102738095Y-82838371D02*
X102976190Y-82838371D01*
X102976190Y-82838371D02*
X103071428Y-82885990D01*
X103071428Y-82885990D02*
X103119047Y-82933609D01*
X103119047Y-82933609D02*
X103166666Y-83028847D01*
X103166666Y-83028847D02*
X103166666Y-83266942D01*
X103166666Y-83266942D02*
X103119047Y-83362180D01*
X103119047Y-83362180D02*
X103071428Y-83409800D01*
X103071428Y-83409800D02*
X102976190Y-83457419D01*
X102976190Y-83457419D02*
X102738095Y-83457419D01*
X102738095Y-83457419D02*
X102642857Y-83409800D01*
X102642857Y-83409800D02*
X102595238Y-83362180D01*
X153690476Y-82457419D02*
X153690476Y-83171704D01*
X153690476Y-83171704D02*
X153642857Y-83314561D01*
X153642857Y-83314561D02*
X153547619Y-83409800D01*
X153547619Y-83409800D02*
X153404762Y-83457419D01*
X153404762Y-83457419D02*
X153309524Y-83457419D01*
X154690476Y-83457419D02*
X154119048Y-83457419D01*
X154404762Y-83457419D02*
X154404762Y-82457419D01*
X154404762Y-82457419D02*
X154309524Y-82600276D01*
X154309524Y-82600276D02*
X154214286Y-82695514D01*
X154214286Y-82695514D02*
X154119048Y-82743133D01*
X155547619Y-82790752D02*
X155547619Y-83457419D01*
X155309524Y-82409800D02*
X155071429Y-83124085D01*
X155071429Y-83124085D02*
X155690476Y-83124085D01*
X114690476Y-112457419D02*
X114690476Y-113171704D01*
X114690476Y-113171704D02*
X114642857Y-113314561D01*
X114642857Y-113314561D02*
X114547619Y-113409800D01*
X114547619Y-113409800D02*
X114404762Y-113457419D01*
X114404762Y-113457419D02*
X114309524Y-113457419D01*
X115119048Y-112552657D02*
X115166667Y-112505038D01*
X115166667Y-112505038D02*
X115261905Y-112457419D01*
X115261905Y-112457419D02*
X115500000Y-112457419D01*
X115500000Y-112457419D02*
X115595238Y-112505038D01*
X115595238Y-112505038D02*
X115642857Y-112552657D01*
X115642857Y-112552657D02*
X115690476Y-112647895D01*
X115690476Y-112647895D02*
X115690476Y-112743133D01*
X115690476Y-112743133D02*
X115642857Y-112885990D01*
X115642857Y-112885990D02*
X115071429Y-113457419D01*
X115071429Y-113457419D02*
X115690476Y-113457419D01*
X116166667Y-113457419D02*
X116357143Y-113457419D01*
X116357143Y-113457419D02*
X116452381Y-113409800D01*
X116452381Y-113409800D02*
X116500000Y-113362180D01*
X116500000Y-113362180D02*
X116595238Y-113219323D01*
X116595238Y-113219323D02*
X116642857Y-113028847D01*
X116642857Y-113028847D02*
X116642857Y-112647895D01*
X116642857Y-112647895D02*
X116595238Y-112552657D01*
X116595238Y-112552657D02*
X116547619Y-112505038D01*
X116547619Y-112505038D02*
X116452381Y-112457419D01*
X116452381Y-112457419D02*
X116261905Y-112457419D01*
X116261905Y-112457419D02*
X116166667Y-112505038D01*
X116166667Y-112505038D02*
X116119048Y-112552657D01*
X116119048Y-112552657D02*
X116071429Y-112647895D01*
X116071429Y-112647895D02*
X116071429Y-112885990D01*
X116071429Y-112885990D02*
X116119048Y-112981228D01*
X116119048Y-112981228D02*
X116166667Y-113028847D01*
X116166667Y-113028847D02*
X116261905Y-113076466D01*
X116261905Y-113076466D02*
X116452381Y-113076466D01*
X116452381Y-113076466D02*
X116547619Y-113028847D01*
X116547619Y-113028847D02*
X116595238Y-112981228D01*
X116595238Y-112981228D02*
X116642857Y-112885990D01*
X128166666Y-82457419D02*
X128166666Y-83171704D01*
X128166666Y-83171704D02*
X128119047Y-83314561D01*
X128119047Y-83314561D02*
X128023809Y-83409800D01*
X128023809Y-83409800D02*
X127880952Y-83457419D01*
X127880952Y-83457419D02*
X127785714Y-83457419D01*
X128690476Y-83457419D02*
X128880952Y-83457419D01*
X128880952Y-83457419D02*
X128976190Y-83409800D01*
X128976190Y-83409800D02*
X129023809Y-83362180D01*
X129023809Y-83362180D02*
X129119047Y-83219323D01*
X129119047Y-83219323D02*
X129166666Y-83028847D01*
X129166666Y-83028847D02*
X129166666Y-82647895D01*
X129166666Y-82647895D02*
X129119047Y-82552657D01*
X129119047Y-82552657D02*
X129071428Y-82505038D01*
X129071428Y-82505038D02*
X128976190Y-82457419D01*
X128976190Y-82457419D02*
X128785714Y-82457419D01*
X128785714Y-82457419D02*
X128690476Y-82505038D01*
X128690476Y-82505038D02*
X128642857Y-82552657D01*
X128642857Y-82552657D02*
X128595238Y-82647895D01*
X128595238Y-82647895D02*
X128595238Y-82885990D01*
X128595238Y-82885990D02*
X128642857Y-82981228D01*
X128642857Y-82981228D02*
X128690476Y-83028847D01*
X128690476Y-83028847D02*
X128785714Y-83076466D01*
X128785714Y-83076466D02*
X128976190Y-83076466D01*
X128976190Y-83076466D02*
X129071428Y-83028847D01*
X129071428Y-83028847D02*
X129119047Y-82981228D01*
X129119047Y-82981228D02*
X129166666Y-82885990D01*
X192190476Y-100433609D02*
X191857143Y-100433609D01*
X191857143Y-100957419D02*
X191857143Y-99957419D01*
X191857143Y-99957419D02*
X192333333Y-99957419D01*
X193238095Y-100957419D02*
X192666667Y-100957419D01*
X192952381Y-100957419D02*
X192952381Y-99957419D01*
X192952381Y-99957419D02*
X192857143Y-100100276D01*
X192857143Y-100100276D02*
X192761905Y-100195514D01*
X192761905Y-100195514D02*
X192666667Y-100243133D01*
X193857143Y-99957419D02*
X193952381Y-99957419D01*
X193952381Y-99957419D02*
X194047619Y-100005038D01*
X194047619Y-100005038D02*
X194095238Y-100052657D01*
X194095238Y-100052657D02*
X194142857Y-100147895D01*
X194142857Y-100147895D02*
X194190476Y-100338371D01*
X194190476Y-100338371D02*
X194190476Y-100576466D01*
X194190476Y-100576466D02*
X194142857Y-100766942D01*
X194142857Y-100766942D02*
X194095238Y-100862180D01*
X194095238Y-100862180D02*
X194047619Y-100909800D01*
X194047619Y-100909800D02*
X193952381Y-100957419D01*
X193952381Y-100957419D02*
X193857143Y-100957419D01*
X193857143Y-100957419D02*
X193761905Y-100909800D01*
X193761905Y-100909800D02*
X193714286Y-100862180D01*
X193714286Y-100862180D02*
X193666667Y-100766942D01*
X193666667Y-100766942D02*
X193619048Y-100576466D01*
X193619048Y-100576466D02*
X193619048Y-100338371D01*
X193619048Y-100338371D02*
X193666667Y-100147895D01*
X193666667Y-100147895D02*
X193714286Y-100052657D01*
X193714286Y-100052657D02*
X193761905Y-100005038D01*
X193761905Y-100005038D02*
X193857143Y-99957419D01*
X192690476Y-82457419D02*
X192690476Y-83171704D01*
X192690476Y-83171704D02*
X192642857Y-83314561D01*
X192642857Y-83314561D02*
X192547619Y-83409800D01*
X192547619Y-83409800D02*
X192404762Y-83457419D01*
X192404762Y-83457419D02*
X192309524Y-83457419D01*
X193690476Y-83457419D02*
X193119048Y-83457419D01*
X193404762Y-83457419D02*
X193404762Y-82457419D01*
X193404762Y-82457419D02*
X193309524Y-82600276D01*
X193309524Y-82600276D02*
X193214286Y-82695514D01*
X193214286Y-82695514D02*
X193119048Y-82743133D01*
X194261905Y-82885990D02*
X194166667Y-82838371D01*
X194166667Y-82838371D02*
X194119048Y-82790752D01*
X194119048Y-82790752D02*
X194071429Y-82695514D01*
X194071429Y-82695514D02*
X194071429Y-82647895D01*
X194071429Y-82647895D02*
X194119048Y-82552657D01*
X194119048Y-82552657D02*
X194166667Y-82505038D01*
X194166667Y-82505038D02*
X194261905Y-82457419D01*
X194261905Y-82457419D02*
X194452381Y-82457419D01*
X194452381Y-82457419D02*
X194547619Y-82505038D01*
X194547619Y-82505038D02*
X194595238Y-82552657D01*
X194595238Y-82552657D02*
X194642857Y-82647895D01*
X194642857Y-82647895D02*
X194642857Y-82695514D01*
X194642857Y-82695514D02*
X194595238Y-82790752D01*
X194595238Y-82790752D02*
X194547619Y-82838371D01*
X194547619Y-82838371D02*
X194452381Y-82885990D01*
X194452381Y-82885990D02*
X194261905Y-82885990D01*
X194261905Y-82885990D02*
X194166667Y-82933609D01*
X194166667Y-82933609D02*
X194119048Y-82981228D01*
X194119048Y-82981228D02*
X194071429Y-83076466D01*
X194071429Y-83076466D02*
X194071429Y-83266942D01*
X194071429Y-83266942D02*
X194119048Y-83362180D01*
X194119048Y-83362180D02*
X194166667Y-83409800D01*
X194166667Y-83409800D02*
X194261905Y-83457419D01*
X194261905Y-83457419D02*
X194452381Y-83457419D01*
X194452381Y-83457419D02*
X194547619Y-83409800D01*
X194547619Y-83409800D02*
X194595238Y-83362180D01*
X194595238Y-83362180D02*
X194642857Y-83266942D01*
X194642857Y-83266942D02*
X194642857Y-83076466D01*
X194642857Y-83076466D02*
X194595238Y-82981228D01*
X194595238Y-82981228D02*
X194547619Y-82933609D01*
X194547619Y-82933609D02*
X194452381Y-82885990D01*
X153690476Y-104957419D02*
X153690476Y-105671704D01*
X153690476Y-105671704D02*
X153642857Y-105814561D01*
X153642857Y-105814561D02*
X153547619Y-105909800D01*
X153547619Y-105909800D02*
X153404762Y-105957419D01*
X153404762Y-105957419D02*
X153309524Y-105957419D01*
X154071429Y-104957419D02*
X154690476Y-104957419D01*
X154690476Y-104957419D02*
X154357143Y-105338371D01*
X154357143Y-105338371D02*
X154500000Y-105338371D01*
X154500000Y-105338371D02*
X154595238Y-105385990D01*
X154595238Y-105385990D02*
X154642857Y-105433609D01*
X154642857Y-105433609D02*
X154690476Y-105528847D01*
X154690476Y-105528847D02*
X154690476Y-105766942D01*
X154690476Y-105766942D02*
X154642857Y-105862180D01*
X154642857Y-105862180D02*
X154595238Y-105909800D01*
X154595238Y-105909800D02*
X154500000Y-105957419D01*
X154500000Y-105957419D02*
X154214286Y-105957419D01*
X154214286Y-105957419D02*
X154119048Y-105909800D01*
X154119048Y-105909800D02*
X154071429Y-105862180D01*
X155595238Y-104957419D02*
X155119048Y-104957419D01*
X155119048Y-104957419D02*
X155071429Y-105433609D01*
X155071429Y-105433609D02*
X155119048Y-105385990D01*
X155119048Y-105385990D02*
X155214286Y-105338371D01*
X155214286Y-105338371D02*
X155452381Y-105338371D01*
X155452381Y-105338371D02*
X155547619Y-105385990D01*
X155547619Y-105385990D02*
X155595238Y-105433609D01*
X155595238Y-105433609D02*
X155642857Y-105528847D01*
X155642857Y-105528847D02*
X155642857Y-105766942D01*
X155642857Y-105766942D02*
X155595238Y-105862180D01*
X155595238Y-105862180D02*
X155547619Y-105909800D01*
X155547619Y-105909800D02*
X155452381Y-105957419D01*
X155452381Y-105957419D02*
X155214286Y-105957419D01*
X155214286Y-105957419D02*
X155119048Y-105909800D01*
X155119048Y-105909800D02*
X155071429Y-105862180D01*
X114690476Y-104957419D02*
X114690476Y-105671704D01*
X114690476Y-105671704D02*
X114642857Y-105814561D01*
X114642857Y-105814561D02*
X114547619Y-105909800D01*
X114547619Y-105909800D02*
X114404762Y-105957419D01*
X114404762Y-105957419D02*
X114309524Y-105957419D01*
X115119048Y-105052657D02*
X115166667Y-105005038D01*
X115166667Y-105005038D02*
X115261905Y-104957419D01*
X115261905Y-104957419D02*
X115500000Y-104957419D01*
X115500000Y-104957419D02*
X115595238Y-105005038D01*
X115595238Y-105005038D02*
X115642857Y-105052657D01*
X115642857Y-105052657D02*
X115690476Y-105147895D01*
X115690476Y-105147895D02*
X115690476Y-105243133D01*
X115690476Y-105243133D02*
X115642857Y-105385990D01*
X115642857Y-105385990D02*
X115071429Y-105957419D01*
X115071429Y-105957419D02*
X115690476Y-105957419D01*
X116261905Y-105385990D02*
X116166667Y-105338371D01*
X116166667Y-105338371D02*
X116119048Y-105290752D01*
X116119048Y-105290752D02*
X116071429Y-105195514D01*
X116071429Y-105195514D02*
X116071429Y-105147895D01*
X116071429Y-105147895D02*
X116119048Y-105052657D01*
X116119048Y-105052657D02*
X116166667Y-105005038D01*
X116166667Y-105005038D02*
X116261905Y-104957419D01*
X116261905Y-104957419D02*
X116452381Y-104957419D01*
X116452381Y-104957419D02*
X116547619Y-105005038D01*
X116547619Y-105005038D02*
X116595238Y-105052657D01*
X116595238Y-105052657D02*
X116642857Y-105147895D01*
X116642857Y-105147895D02*
X116642857Y-105195514D01*
X116642857Y-105195514D02*
X116595238Y-105290752D01*
X116595238Y-105290752D02*
X116547619Y-105338371D01*
X116547619Y-105338371D02*
X116452381Y-105385990D01*
X116452381Y-105385990D02*
X116261905Y-105385990D01*
X116261905Y-105385990D02*
X116166667Y-105433609D01*
X116166667Y-105433609D02*
X116119048Y-105481228D01*
X116119048Y-105481228D02*
X116071429Y-105576466D01*
X116071429Y-105576466D02*
X116071429Y-105766942D01*
X116071429Y-105766942D02*
X116119048Y-105862180D01*
X116119048Y-105862180D02*
X116166667Y-105909800D01*
X116166667Y-105909800D02*
X116261905Y-105957419D01*
X116261905Y-105957419D02*
X116452381Y-105957419D01*
X116452381Y-105957419D02*
X116547619Y-105909800D01*
X116547619Y-105909800D02*
X116595238Y-105862180D01*
X116595238Y-105862180D02*
X116642857Y-105766942D01*
X116642857Y-105766942D02*
X116642857Y-105576466D01*
X116642857Y-105576466D02*
X116595238Y-105481228D01*
X116595238Y-105481228D02*
X116547619Y-105433609D01*
X116547619Y-105433609D02*
X116452381Y-105385990D01*
X141666666Y-99433609D02*
X141333333Y-99433609D01*
X141333333Y-99957419D02*
X141333333Y-98957419D01*
X141333333Y-98957419D02*
X141809523Y-98957419D01*
X142619047Y-98957419D02*
X142428571Y-98957419D01*
X142428571Y-98957419D02*
X142333333Y-99005038D01*
X142333333Y-99005038D02*
X142285714Y-99052657D01*
X142285714Y-99052657D02*
X142190476Y-99195514D01*
X142190476Y-99195514D02*
X142142857Y-99385990D01*
X142142857Y-99385990D02*
X142142857Y-99766942D01*
X142142857Y-99766942D02*
X142190476Y-99862180D01*
X142190476Y-99862180D02*
X142238095Y-99909800D01*
X142238095Y-99909800D02*
X142333333Y-99957419D01*
X142333333Y-99957419D02*
X142523809Y-99957419D01*
X142523809Y-99957419D02*
X142619047Y-99909800D01*
X142619047Y-99909800D02*
X142666666Y-99862180D01*
X142666666Y-99862180D02*
X142714285Y-99766942D01*
X142714285Y-99766942D02*
X142714285Y-99528847D01*
X142714285Y-99528847D02*
X142666666Y-99433609D01*
X142666666Y-99433609D02*
X142619047Y-99385990D01*
X142619047Y-99385990D02*
X142523809Y-99338371D01*
X142523809Y-99338371D02*
X142333333Y-99338371D01*
X142333333Y-99338371D02*
X142238095Y-99385990D01*
X142238095Y-99385990D02*
X142190476Y-99433609D01*
X142190476Y-99433609D02*
X142142857Y-99528847D01*
X140690476Y-112457419D02*
X140690476Y-113171704D01*
X140690476Y-113171704D02*
X140642857Y-113314561D01*
X140642857Y-113314561D02*
X140547619Y-113409800D01*
X140547619Y-113409800D02*
X140404762Y-113457419D01*
X140404762Y-113457419D02*
X140309524Y-113457419D01*
X141071429Y-112457419D02*
X141690476Y-112457419D01*
X141690476Y-112457419D02*
X141357143Y-112838371D01*
X141357143Y-112838371D02*
X141500000Y-112838371D01*
X141500000Y-112838371D02*
X141595238Y-112885990D01*
X141595238Y-112885990D02*
X141642857Y-112933609D01*
X141642857Y-112933609D02*
X141690476Y-113028847D01*
X141690476Y-113028847D02*
X141690476Y-113266942D01*
X141690476Y-113266942D02*
X141642857Y-113362180D01*
X141642857Y-113362180D02*
X141595238Y-113409800D01*
X141595238Y-113409800D02*
X141500000Y-113457419D01*
X141500000Y-113457419D02*
X141214286Y-113457419D01*
X141214286Y-113457419D02*
X141119048Y-113409800D01*
X141119048Y-113409800D02*
X141071429Y-113362180D01*
X142023810Y-112457419D02*
X142642857Y-112457419D01*
X142642857Y-112457419D02*
X142309524Y-112838371D01*
X142309524Y-112838371D02*
X142452381Y-112838371D01*
X142452381Y-112838371D02*
X142547619Y-112885990D01*
X142547619Y-112885990D02*
X142595238Y-112933609D01*
X142595238Y-112933609D02*
X142642857Y-113028847D01*
X142642857Y-113028847D02*
X142642857Y-113266942D01*
X142642857Y-113266942D02*
X142595238Y-113362180D01*
X142595238Y-113362180D02*
X142547619Y-113409800D01*
X142547619Y-113409800D02*
X142452381Y-113457419D01*
X142452381Y-113457419D02*
X142166667Y-113457419D01*
X142166667Y-113457419D02*
X142071429Y-113409800D01*
X142071429Y-113409800D02*
X142023810Y-113362180D01*
X88690476Y-97457419D02*
X88690476Y-98171704D01*
X88690476Y-98171704D02*
X88642857Y-98314561D01*
X88642857Y-98314561D02*
X88547619Y-98409800D01*
X88547619Y-98409800D02*
X88404762Y-98457419D01*
X88404762Y-98457419D02*
X88309524Y-98457419D01*
X89119048Y-97552657D02*
X89166667Y-97505038D01*
X89166667Y-97505038D02*
X89261905Y-97457419D01*
X89261905Y-97457419D02*
X89500000Y-97457419D01*
X89500000Y-97457419D02*
X89595238Y-97505038D01*
X89595238Y-97505038D02*
X89642857Y-97552657D01*
X89642857Y-97552657D02*
X89690476Y-97647895D01*
X89690476Y-97647895D02*
X89690476Y-97743133D01*
X89690476Y-97743133D02*
X89642857Y-97885990D01*
X89642857Y-97885990D02*
X89071429Y-98457419D01*
X89071429Y-98457419D02*
X89690476Y-98457419D01*
X90071429Y-97552657D02*
X90119048Y-97505038D01*
X90119048Y-97505038D02*
X90214286Y-97457419D01*
X90214286Y-97457419D02*
X90452381Y-97457419D01*
X90452381Y-97457419D02*
X90547619Y-97505038D01*
X90547619Y-97505038D02*
X90595238Y-97552657D01*
X90595238Y-97552657D02*
X90642857Y-97647895D01*
X90642857Y-97647895D02*
X90642857Y-97743133D01*
X90642857Y-97743133D02*
X90595238Y-97885990D01*
X90595238Y-97885990D02*
X90023810Y-98457419D01*
X90023810Y-98457419D02*
X90642857Y-98457419D01*
X192690476Y-112457419D02*
X192690476Y-113171704D01*
X192690476Y-113171704D02*
X192642857Y-113314561D01*
X192642857Y-113314561D02*
X192547619Y-113409800D01*
X192547619Y-113409800D02*
X192404762Y-113457419D01*
X192404762Y-113457419D02*
X192309524Y-113457419D01*
X193595238Y-112790752D02*
X193595238Y-113457419D01*
X193357143Y-112409800D02*
X193119048Y-113124085D01*
X193119048Y-113124085D02*
X193738095Y-113124085D01*
X194547619Y-112790752D02*
X194547619Y-113457419D01*
X194309524Y-112409800D02*
X194071429Y-113124085D01*
X194071429Y-113124085D02*
X194690476Y-113124085D01*
M02*
